<?xml version="1.0" encoding="UTF-8"?>
<svg width="22px" height="26px" viewBox="0 0 22 26" version="1.1" xmlns="http://www.w3.org/2000/svg" xmlns:xlink="http://www.w3.org/1999/xlink">
    <!-- Generator: Sketch 63.1 (92452) - https://sketch.com -->
    <title>android</title>
    <desc>Created with Sketch.</desc>
    <g id="Page-1" stroke="none" stroke-width="1" fill="none" fill-rule="evenodd">
        <g id="Desktop-HD" transform="translate(-388.000000, -331.000000)">
            <g id="android" transform="translate(383.000000, 328.000000)">
                <rect id="Bound" x="0" y="0" width="32" height="32"></rect>
                <path d="M21.8843585,11.6558713 C22.1845029,11.6558713 22.4278894,11.8979298 22.4278894,12.196499 L22.4278894,12.196499 L22.4278894,20.8462378 C22.4281441,22.1309318 21.5194061,23.2382885 20.2540205,23.4952476 L20.2540205,23.4952476 L20.2540205,27.3335673 C20.2540205,28.2292749 19.5240648,28.9553996 18.6236316,28.9553996 C17.7231984,28.9553996 16.9932427,28.2292749 16.9932427,27.3335673 L16.9932427,27.3335673 L16.9932427,23.5492749 L14.8193738,23.5492749 L14.8193738,27.3335673 C14.8193738,28.2292749 14.0894181,28.9553996 13.1889849,28.9553996 C12.2885517,28.9553996 11.558596,28.2292749 11.558596,27.3335673 L11.558596,27.3335673 L11.558596,23.4952476 C10.2932104,23.2382885 9.38447241,22.1309318 9.38472711,20.8462378 L9.38472711,20.8462378 L9.38472711,12.196499 C9.38472711,11.8979298 9.62806271,11.6558713 9.92820711,11.6558713 L9.92820711,11.6558713 Z M6.6674293,11.6558713 C7.56786253,11.6558713 8.29781821,12.3819961 8.29781821,13.2777037 L8.29781821,13.2777037 L8.29781821,20.8462378 C8.29781821,21.7419454 7.56786253,22.4680702 6.6674293,22.4680702 C5.76699608,22.4680702 5.0370404,21.7419454 5.0370404,20.8462378 L5.0370404,20.8462378 L5.0370404,13.2777037 C5.0370404,12.3819961 5.76699608,11.6558713 6.6674293,11.6558713 Z M25.1451363,11.6558713 C26.0456204,11.6558713 26.7755252,12.3819961 26.7755252,13.2777037 L26.7755252,13.2777037 L26.7755252,20.8462378 C26.7755252,21.7419454 26.0455695,22.4680702 25.1451363,22.4680702 C24.244703,22.4680702 23.5147474,21.7419454 23.5147474,20.8462378 L23.5147474,20.8462378 L23.5147474,13.2777037 C23.5147474,12.3819961 24.244703,11.6558713 25.1451363,11.6558713 Z M21.1955701,3.16502144 C21.380891,3.35594715 21.3967722,3.6475466 21.2463984,3.85568287 L21.1822213,3.92946199 L19.8572756,5.24638986 C21.4712077,6.30869006 22.4378245,8.10897466 22.4279652,10.0339883 C22.4279652,10.3027006 22.230802,10.5256392 21.9725641,10.5675398 L21.8844094,10.574616 L9.92820711,10.574616 C9.62806271,10.574616 9.38465054,10.3325575 9.38465054,10.0339883 C9.37517188,8.19262243 10.2591502,6.46542174 11.7484752,5.38903484 L11.95529,5.24633918 L10.6314142,3.92834698 C10.4280232,3.71887719 10.4280232,3.38675634 10.6314142,3.17723587 C10.8167804,2.98635521 11.1092289,2.96042091 11.323544,3.10270778 L11.3998879,3.16395712 L12.9433057,4.70038986 C14.739123,3.92438616 16.7660002,3.88558597 18.5849236,4.58398931 L18.8703298,4.70038986 L20.4137477,3.16502144 L20.4270965,3.15174269 L20.4270965,3.15174269 C20.6430211,2.94435088 20.9870332,2.9502807 21.1955701,3.16502144 Z M13.1063306,7.2141393 C12.7999105,7.2141393 12.5515079,7.43122014 12.5515079,7.69900293 C12.5515079,7.96678572 12.7999105,8.18386657 13.1063306,8.18386657 C13.4127507,8.18386657 13.6611533,7.96678572 13.6611533,7.69900293 C13.6611533,7.43122014 13.4127507,7.2141393 13.1063306,7.2141393 Z M18.6543496,7.2141393 C18.3479295,7.2141393 18.0995269,7.43122014 18.0995269,7.69900293 C18.0995269,7.96678572 18.3479295,8.18386657 18.6543496,8.18386657 C18.9607697,8.18386657 19.2091723,7.96678572 19.2091723,7.69900293 C19.2091723,7.43122014 18.9607697,7.2141393 18.6543496,7.2141393 Z" id="Combined-Shape" fill="#455DC7" fill-rule="nonzero"></path>
            </g>
        </g>
    </g>
</svg>