<?xml version="1.0" encoding="UTF-8"?>
<svg width="137px" height="45px" viewBox="0 0 137 45" version="1.1" xmlns="http://www.w3.org/2000/svg" xmlns:xlink="http://www.w3.org/1999/xlink">
    <!-- Generator: Sketch 63.1 (92452) - https://sketch.com -->
    <title>Logo Gredu</title>
    <desc>Created with Sketch.</desc>
    <g id="Layer-Style-V2" stroke="none" stroke-width="1" fill="none" fill-rule="evenodd">
        <g id="Layer-Styles---Fill" transform="translate(-1004.000000, -26.000000)" fill-rule="nonzero">
            <g id="Logo-Gredu" transform="translate(1003.000000, 26.000000)">
                <g id="lg_gredu_big" transform="translate(0.992126, 0.294118)">
                    <g id="Group">
                        <path d="M11.7457987,44.6068929 C8.73404055,44.6068929 6.3058466,44.0232393 4.46114487,42.8559144 C2.61644286,41.6885896 1.46822701,40.0141734 1.01646337,37.8326156 L7.45406462,37.0862969 C7.67994658,38.0813936 8.16934979,38.8659772 8.92228946,39.4400713 C9.67522913,40.0141653 10.672859,40.3012083 11.9152092,40.3012083 C13.6846174,40.3012083 14.9834187,39.7462589 15.8116522,38.6363436 C16.6398857,37.5264283 17.0539961,35.8615801 17.0539961,33.6417492 L17.0539961,32.3213392 L17.1104665,29.8527469 L17.0539961,29.8527469 C15.6234111,32.9528553 12.9693388,34.4837501 9.09169997,34.4454772 C6.19288253,34.4454772 3.95292092,33.3451465 2.37174777,31.1444521 C0.790574623,28.9437579 0,25.7958554 0,21.7006505 C0,17.6054456 0.818809664,14.438407 2.45645317,12.1994396 C4.09409667,9.96047256 6.45640922,8.84100573 9.54346144,8.84100573 C13.1575714,8.84100573 15.661058,10.3527643 17.0539961,13.3763268 L17.1669366,13.3763268 C17.1669366,12.8405056 17.2045829,12.1037624 17.279877,11.1660753 C17.3551708,10.2283884 17.4304638,9.60646222 17.5057576,9.30027874 L23.5480677,9.30027874 C23.4727737,10.9842881 23.4351273,12.9361792 23.4351273,15.1560098 L23.4351273,33.7565676 C23.4351273,37.3542244 22.4374972,40.0619944 20.4422073,41.8799591 C18.4469174,43.6979241 15.5481437,44.6068929 11.7457987,44.6068929 Z M17.1104665,21.5858322 C17.1104665,18.9832721 16.6587094,16.9548364 15.7551821,15.5004648 C14.8516545,14.0460928 13.5528533,13.3189178 11.8587391,13.3189178 C8.43286398,13.3189178 6.7199522,16.1128008 6.7199522,21.7006505 C6.7199522,27.1736816 8.4140408,29.9101559 11.8022691,29.9101559 C13.4963829,29.9101559 14.8045958,29.1925489 15.7269468,27.7573137 C16.6492978,26.3220782 17.1104665,24.2649383 17.1104665,21.5858322 Z M29.9291986,34.5028862 L29.9291986,15.2134191 C29.9291986,13.8355929 29.9103755,12.6874218 29.8727286,11.7688714 C29.8350817,10.8503207 29.797435,10.0274646 29.7597881,9.30027874 L35.8585684,9.30027874 C35.8962153,9.56818935 35.9620964,10.4197494 36.0562139,11.8549849 C36.1503314,13.2902204 36.1973894,14.2374616 36.1973894,14.6967368 L36.2538595,14.6967368 C36.8938582,12.9361814 37.4585544,11.6923293 37.9479652,10.9651434 C38.437376,10.2379576 39.0114838,9.70214438 39.6703059,9.35768776 C40.3291281,9.01323142 41.1667606,8.84100573 42.1832292,8.84100573 C43.0114626,8.84100573 43.670275,8.95582267 44.1596856,9.18546042 L44.1596856,14.6393278 C43.1055701,14.40969 42.2020561,14.2948728 41.4491167,14.2948728 C39.8302967,14.2948728 38.5785534,14.9550713 37.6938493,16.2754879 C36.8091452,17.5959046 36.3667999,19.5573634 36.3667999,22.1599235 L36.3667999,34.5028862 L29.9291986,34.5028862 Z M58.277232,34.9621592 C54.5501811,34.9621592 51.6890538,33.8426924 49.6937639,31.6037253 C47.698474,29.364758 46.7008441,26.1020386 46.7008441,21.8154688 C46.7008441,17.6437179 47.7172972,14.438407 49.750234,12.1994396 C51.783171,9.96047256 54.6631215,8.84100573 58.3901725,8.84100573 C61.9289886,8.84100573 64.6395305,10.0465853 66.5218794,12.4577808 C68.4042283,14.8689763 69.3453887,18.3708982 69.3453887,22.9636515 L69.3453887,23.1932878 L53.4772664,23.1932878 C53.4772664,25.6427562 53.9196117,27.4893981 54.8043158,28.7332687 C55.6890196,29.9771393 56.9595861,30.5990655 58.6160533,30.5990655 C60.8748721,30.5990655 62.3054359,29.603984 62.9077874,27.6137908 L69.0065676,28.1304729 C67.2371594,32.6849533 63.6607502,34.9621592 58.277232,34.9621592 Z M58.277232,12.9744631 C56.771353,12.9744631 55.6137258,13.510276 54.8043158,14.5819185 C53.9949057,15.6535609 53.5713834,17.1461833 53.5337365,19.0598305 L63.1336683,19.0598305 C63.0207273,17.0313645 62.5407354,15.5100378 61.6936785,14.4958049 C60.8466213,13.4815718 59.7078173,12.9744631 58.277232,12.9744631 Z M90.2393574,34.5028862 C90.1640636,34.2732485 90.0887706,33.6895949 90.0134768,32.7519077 C89.9381827,31.8142206 89.9005364,31.0392051 89.9005364,30.4268382 L89.7875959,30.4268382 C88.3946578,33.4504006 85.7594089,34.9621592 81.8817699,34.9621592 C78.9829527,34.9621592 76.7524027,33.8235563 75.190053,31.546316 C73.6277033,29.2690758 72.8465402,26.0637649 72.8465402,21.9302871 C72.8465402,17.7585362 73.6747612,14.5340891 75.3312284,12.2568489 C76.9876954,9.97960871 79.3405964,8.84100573 82.3900017,8.84100573 C84.1594096,8.84100573 85.6746777,9.21416134 86.9358517,9.9604836 C88.1970253,10.7068061 89.1664207,11.826273 89.8440663,13.3189178 L89.9005364,13.3189178 L89.8440663,9.18546042 L89.8440663,0 L96.2816675,0 L96.2816675,28.9916099 C96.2816675,30.5608007 96.3381371,32.3978742 96.4510781,34.5028862 L90.2393574,34.5028862 Z M89.9570067,21.7580598 C89.9570067,19.0406805 89.5052496,16.9548364 88.6017221,15.5004648 C87.6981945,14.0460928 86.38057,13.3189178 84.648809,13.3189178 C82.917048,13.3189178 81.6370699,14.0269567 80.8088364,15.4430555 C79.9806029,16.8591545 79.5664924,19.0215433 79.5664924,21.9302871 C79.5664924,27.6329557 81.2417579,30.4842472 84.5923389,30.4842472 C86.2864531,30.4842472 87.6040775,29.7283679 88.545252,28.2165867 C89.4864264,26.7048054 89.9570067,24.5519845 89.9570067,21.7580598 Z M108.818049,9.30027874 L108.818049,23.4229245 C108.818049,27.862586 110.286259,30.0823832 113.222723,30.0823832 C114.76625,30.0823832 116.017993,29.4030488 116.977991,28.0443593 C117.937989,26.6856698 118.417981,24.9538449 118.417981,22.8488331 L118.417981,9.30027874 L124.855582,9.30027874 L124.855582,28.8767915 C124.855582,31.0200764 124.912051,32.8954226 125.024992,34.5028862 L118.926212,34.5028862 C118.737977,32.2830556 118.643861,30.6182075 118.643861,29.5082919 L118.530921,29.5082919 C117.66504,31.4219393 116.573294,32.8093126 115.25565,33.6704537 C113.938006,34.5315952 112.37568,34.9621592 110.568625,34.9621592 C107.933336,34.9621592 105.909841,34.1488715 104.49808,32.5222714 C103.086318,30.8956713 102.380447,28.49408 102.380447,25.3174255 L102.380447,9.30027874 L108.818049,9.30027874 Z" id="gredu" fill="#314457"></path>
                        <polygon id="." fill="#FF9400" points="130.093573 36.0286443 130.093573 29.1660454 136.851681 29.1660454 136.851681 36.0286443"></polygon>
                    </g>
                </g>
            </g>
        </g>
    </g>
</svg>