<?xml version="1.0" encoding="UTF-8"?>
<svg width="22px" height="26px" viewBox="0 0 22 26" version="1.1" xmlns="http://www.w3.org/2000/svg" xmlns:xlink="http://www.w3.org/1999/xlink">
    <!-- Generator: Sketch 63.1 (92452) - https://sketch.com -->
    <title>ios</title>
    <desc>Created with Sketch.</desc>
    <g id="Page-1" stroke="none" stroke-width="1" fill="none" fill-rule="evenodd">
        <g id="Desktop-HD" transform="translate(-343.000000, -331.000000)">
            <g id="ios" transform="translate(338.000000, 328.000000)">
                <rect id="Bound" x="0" y="0" width="32" height="32"></rect>
                <path d="M25.9078909,12.1857645 L26.3122239,12.7685742 L25.7303084,13.189759 C24.8989931,13.7914232 23.382164,14.8889484 23.382164,17.0629666 C23.382164,19.6378305 25.0999988,20.6280676 25.9252777,21.1043315 C26.2895747,21.3145528 26.6666667,21.5313063 26.6666667,22.0053928 C26.6666667,22.3149347 24.0910494,28.961598 20.3508273,28.961598 C19.4356221,28.961598 18.7886996,28.6977327 18.2180829,28.4650443 C17.6407075,28.2294362 17.1426304,28.0264896 16.3196215,28.0264896 C15.9024419,28.0264896 15.3749052,28.2156788 14.8164129,28.4164975 C14.0532001,28.6897158 13.1893298,29 12.2091176,29 L12.1834244,29 C8.25199922,28.9782752 5,21.2804561 5,17.3601367 C5,10.9563067 10.0083739,9.55433685 11.9385648,9.55433685 C12.8084199,9.55433685 13.7372457,9.88199101 14.5564882,10.171936 C15.129375,10.3741898 15.721867,10.5829759 16.0513904,10.5829759 C16.2486298,10.5829759 16.7134296,10.4053667 17.123799,10.2495318 C17.9989681,9.91534532 19.0879896,9.5 20.3561413,9.5 C21.3106087,9.5 24.1817496,9.69933408 25.9078909,12.1857645 Z M21.247006,3 C21.3532661,6.2784949 18.6131855,8.55296398 15.8763129,8.41031603 C15.4253266,5.79396383 18.6128478,3 21.247006,3 Z" id="Combined-Shape" fill="#455DC7" fill-rule="nonzero"></path>
            </g>
        </g>
    </g>
</svg>