<?xml version="1.0" encoding="UTF-8"?>
<svg width="196px" height="45px" viewBox="0 0 196 45" version="1.1" xmlns="http://www.w3.org/2000/svg" xmlns:xlink="http://www.w3.org/1999/xlink">
    <!-- Generator: Sketch 63.1 (92452) - https://sketch.com -->
    <title>Group</title>
    <desc>Created with Sketch.</desc>
    <g id="Page-1" stroke="none" stroke-width="1" fill="none" fill-rule="evenodd">
        <g id="Desktop-HD" transform="translate(-24.000000, -16.000000)" fill="#314457" fill-rule="nonzero">
            <g id="Group" transform="translate(24.000000, 16.000000)">
                <path d="M62.272,31.216 C63.648,31.216 64.844,31.012 65.86,30.604 C66.876,30.196 67.652,29.612 68.188,28.852 C68.724,28.092 68.992,27.208 68.992,26.2 C68.992,25.272 68.756,24.504 68.284,23.896 C67.812,23.288 67.132,22.788 66.244,22.396 C65.356,22.004 64.2,21.648 62.776,21.328 C61.432,21.024 60.48,20.696 59.92,20.344 C59.36,19.992 59.08,19.488 59.08,18.832 C59.08,18.048 59.396,17.436 60.028,16.996 C60.66,16.556 61.52,16.336 62.608,16.336 C64.432,16.336 66.096,16.936 67.6,18.136 L67.6,18.136 L68.632,15.88 C67.944,15.256 67.064,14.764 65.992,14.404 C64.92,14.044 63.792,13.864 62.608,13.864 C61.312,13.864 60.168,14.084 59.176,14.524 C58.184,14.964 57.416,15.576 56.872,16.36 C56.328,17.144 56.056,18.032 56.056,19.024 C56.056,19.984 56.28,20.776 56.728,21.4 C57.176,22.024 57.84,22.536 58.72,22.936 C59.6,23.336 60.744,23.688 62.152,23.992 C63.512,24.296 64.484,24.616 65.068,24.952 C65.652,25.288 65.944,25.776 65.944,26.416 C65.944,27.152 65.628,27.724 64.996,28.132 C64.364,28.54 63.464,28.744 62.296,28.744 C61.24,28.744 60.26,28.6 59.356,28.312 C58.452,28.024 57.592,27.568 56.776,26.944 L56.776,26.944 L55.744,29.2 C56.528,29.84 57.488,30.336 58.624,30.688 C59.76,31.04 60.976,31.216 62.272,31.216 Z M77.224,31.168 C77.624,31.168 78.064,31.144 78.544,31.096 L78.544,31.096 L78.688,28.864 C78.304,28.912 77.936,28.936 77.584,28.936 C76.128,28.936 75.4,28.152 75.4,26.584 L75.4,26.584 L75.4,21.52 L78.496,21.52 L78.496,19.264 L75.4,19.264 L75.4,15.76 L72.4,15.76 L72.4,19.264 L70.144,19.264 L70.144,21.52 L72.4,21.52 L72.4,26.632 C72.4,28.136 72.792,29.268 73.576,30.028 C74.36,30.788 75.576,31.168 77.224,31.168 Z M84.688,31.192 C85.472,31.192 86.176,31.02 86.8,30.676 C87.424,30.332 87.92,29.84 88.288,29.2 L88.288,29.2 L88.288,31 L91.216,31 L91.216,19.264 L88.216,19.264 L88.216,25.792 C88.216,26.704 87.964,27.436 87.46,27.988 C86.956,28.54 86.288,28.816 85.456,28.816 C84.736,28.816 84.208,28.616 83.872,28.216 C83.536,27.816 83.368,27.2 83.368,26.368 L83.368,26.368 L83.368,19.264 L80.368,19.264 L80.368,26.344 C80.368,29.576 81.808,31.192 84.688,31.192 Z M98.896,31.192 C99.744,31.192 100.5,31.008 101.164,30.64 C101.828,30.272 102.336,29.76 102.688,29.104 L102.688,29.104 L102.688,31 L105.664,31 L105.664,14.08 L102.664,14.08 L102.664,20.992 C102.312,20.352 101.808,19.856 101.152,19.504 C100.496,19.152 99.744,18.976 98.896,18.976 C97.872,18.976 96.968,19.224 96.184,19.72 C95.4,20.216 94.788,20.92 94.348,21.832 C93.908,22.744 93.688,23.808 93.688,25.024 C93.688,26.24 93.908,27.316 94.348,28.252 C94.788,29.188 95.404,29.912 96.196,30.424 C96.988,30.936 97.888,31.192 98.896,31.192 Z M99.688,28.864 C98.744,28.864 98.008,28.528 97.48,27.856 C96.952,27.184 96.688,26.24 96.688,25.024 C96.688,23.824 96.952,22.904 97.48,22.264 C98.008,21.624 98.752,21.304 99.712,21.304 C100.656,21.304 101.388,21.628 101.908,22.276 C102.428,22.924 102.688,23.856 102.688,25.072 C102.688,26.288 102.428,27.224 101.908,27.88 C101.388,28.536 100.648,28.864 99.688,28.864 Z M114.328,31.192 C115.16,31.192 115.988,31.056 116.812,30.784 C117.636,30.512 118.32,30.152 118.864,29.704 L118.864,29.704 L118,27.64 C116.928,28.472 115.744,28.888 114.448,28.888 C113.408,28.888 112.608,28.624 112.048,28.096 C111.488,27.568 111.16,26.76 111.064,25.672 L111.064,25.672 L119.056,25.672 L119.056,24.832 C119.056,23.008 118.588,21.576 117.652,20.536 C116.716,19.496 115.44,18.976 113.824,18.976 C112.72,18.976 111.732,19.232 110.86,19.744 C109.988,20.256 109.312,20.976 108.832,21.904 C108.352,22.832 108.112,23.896 108.112,25.096 C108.112,26.984 108.668,28.472 109.78,29.56 C110.892,30.648 112.408,31.192 114.328,31.192 Z M116.488,24.064 L111.064,24.064 C111.176,23.104 111.476,22.368 111.964,21.856 C112.452,21.344 113.096,21.088 113.896,21.088 C114.696,21.088 115.32,21.34 115.768,21.844 C116.216,22.348 116.456,23.088 116.488,24.064 L116.488,24.064 Z M124.504,31 L124.504,24.352 C124.504,23.44 124.764,22.712 125.284,22.168 C125.804,21.624 126.496,21.352 127.36,21.352 C128.096,21.352 128.636,21.56 128.98,21.976 C129.324,22.392 129.496,23.056 129.496,23.968 L129.496,23.968 L129.496,31 L132.496,31 L132.496,23.8 C132.496,22.184 132.152,20.976 131.464,20.176 C130.776,19.376 129.728,18.976 128.32,18.976 C127.472,18.976 126.712,19.152 126.04,19.504 C125.368,19.856 124.832,20.36 124.432,21.016 L124.432,21.016 L124.432,19.264 L121.504,19.264 L121.504,31 L124.504,31 Z M141.184,31.168 C141.584,31.168 142.024,31.144 142.504,31.096 L142.504,31.096 L142.648,28.864 C142.264,28.912 141.896,28.936 141.544,28.936 C140.088,28.936 139.36,28.152 139.36,26.584 L139.36,26.584 L139.36,21.52 L142.456,21.52 L142.456,19.264 L139.36,19.264 L139.36,15.76 L136.36,15.76 L136.36,19.264 L134.104,19.264 L134.104,21.52 L136.36,21.52 L136.36,26.632 C136.36,28.136 136.752,29.268 137.536,30.028 C138.32,30.788 139.536,31.168 141.184,31.168 Z M152.464,31 L154.168,27.04 L162.4,27.04 L164.104,31 L167.176,31 L159.52,14.08 L157,14.08 L149.344,31 L152.464,31 Z M161.368,24.64 L155.176,24.64 L158.272,17.44 L161.368,24.64 Z M171.712,35.32 L171.712,29.2 C172.064,29.824 172.568,30.312 173.224,30.664 C173.88,31.016 174.624,31.192 175.456,31.192 C176.48,31.192 177.384,30.944 178.168,30.448 C178.952,29.952 179.564,29.248 180.004,28.336 C180.444,27.424 180.664,26.36 180.664,25.144 C180.664,23.928 180.444,22.852 180.004,21.916 C179.564,20.98 178.948,20.256 178.156,19.744 C177.364,19.232 176.464,18.976 175.456,18.976 C174.608,18.976 173.852,19.156 173.188,19.516 C172.524,19.876 172.016,20.384 171.664,21.04 L171.664,21.04 L171.664,19.264 L168.712,19.264 L168.712,35.32 L171.712,35.32 Z M174.664,28.864 C173.704,28.864 172.964,28.536 172.444,27.88 C171.924,27.224 171.664,26.296 171.664,25.096 C171.664,23.88 171.924,22.944 172.444,22.288 C172.964,21.632 173.704,21.304 174.664,21.304 C175.608,21.304 176.344,21.64 176.872,22.312 C177.4,22.984 177.664,23.928 177.664,25.144 C177.664,26.328 177.4,27.244 176.872,27.892 C176.344,28.54 175.608,28.864 174.664,28.864 Z M186.136,35.32 L186.136,29.2 C186.488,29.824 186.992,30.312 187.648,30.664 C188.304,31.016 189.048,31.192 189.88,31.192 C190.904,31.192 191.808,30.944 192.592,30.448 C193.376,29.952 193.988,29.248 194.428,28.336 C194.868,27.424 195.088,26.36 195.088,25.144 C195.088,23.928 194.868,22.852 194.428,21.916 C193.988,20.98 193.372,20.256 192.58,19.744 C191.788,19.232 190.888,18.976 189.88,18.976 C189.032,18.976 188.276,19.156 187.612,19.516 C186.948,19.876 186.44,20.384 186.088,21.04 L186.088,21.04 L186.088,19.264 L183.136,19.264 L183.136,35.32 L186.136,35.32 Z M189.088,28.864 C188.128,28.864 187.388,28.536 186.868,27.88 C186.348,27.224 186.088,26.296 186.088,25.096 C186.088,23.88 186.348,22.944 186.868,22.288 C187.388,21.632 188.128,21.304 189.088,21.304 C190.032,21.304 190.768,21.64 191.296,22.312 C191.824,22.984 192.088,23.928 192.088,25.144 C192.088,26.328 191.824,27.244 191.296,27.892 C190.768,28.54 190.032,28.864 189.088,28.864 Z" id="StudentApp"></path>
                <g id="abstract">
                    <path d="M22,0.5 C9.84971429,0.5 0,10.3497143 0,22.5 C0,34.6502857 9.84971429,44.5 22,44.5 C34.1502857,44.5 44,34.6502857 44,22.5 C44,10.3497143 34.1502857,0.5 22,0.5 Z M22,36.4376735 L9.00114286,13.9734286 L34.9988571,13.9734286 L22,36.4376735 Z" id="Shape"></path>
                    <polygon id="Path" points="21.5 27.5 27 18.5 16 18.5"></polygon>
                </g>
            </g>
        </g>
    </g>
</svg>