<?xml version="1.0" encoding="UTF-8"?>
<svg width="194px" height="45px" viewBox="0 0 194 45" version="1.1" xmlns="http://www.w3.org/2000/svg" xmlns:xlink="http://www.w3.org/1999/xlink">
    <!-- Generator: Sketch 63.1 (92452) - https://sketch.com -->
    <title>Group</title>
    <desc>Created with Sketch.</desc>
    <g id="Page-1" stroke="none" stroke-width="1" fill="none" fill-rule="evenodd">
        <g id="Desktop-HD" transform="translate(-24.000000, -16.000000)" fill-rule="nonzero">
            <g id="Group" transform="translate(24.000000, 16.000000)">
                <path d="M63.84,31.192 C65.168,31.192 66.316,30.992 67.284,30.592 C68.252,30.192 68.996,29.624 69.516,28.888 C70.036,28.152 70.296,27.296 70.296,26.32 C70.296,25.36 70.036,24.58 69.516,23.98 C68.996,23.38 68.3,22.908 67.428,22.564 C66.556,22.22 65.416,21.888 64.008,21.568 C62.664,21.248 61.688,20.892 61.08,20.5 C60.472,20.108 60.168,19.528 60.168,18.76 C60.168,17.864 60.516,17.164 61.212,16.66 C61.908,16.156 62.864,15.904 64.08,15.904 C65.008,15.904 65.884,16.06 66.708,16.372 C67.532,16.684 68.336,17.16 69.12,17.8 L69.12,17.8 L69.984,15.976 C69.312,15.304 68.452,14.788 67.404,14.428 C66.356,14.068 65.24,13.888 64.056,13.888 C62.792,13.888 61.68,14.1 60.72,14.524 C59.76,14.948 59.02,15.536 58.5,16.288 C57.98,17.04 57.72,17.912 57.72,18.904 C57.72,19.88 57.964,20.684 58.452,21.316 C58.94,21.948 59.616,22.448 60.48,22.816 C61.344,23.184 62.448,23.512 63.792,23.8 C65.2,24.12 66.224,24.46 66.864,24.82 C67.504,25.18 67.824,25.728 67.824,26.464 C67.824,27.328 67.48,27.996 66.792,28.468 C66.104,28.94 65.128,29.176 63.864,29.176 C62.76,29.176 61.764,29.028 60.876,28.732 C59.988,28.436 59.128,27.952 58.296,27.28 L58.296,27.28 L57.408,29.104 C58.192,29.792 59.132,30.312 60.228,30.664 C61.324,31.016 62.528,31.192 63.84,31.192 Z M78.312,31.168 C78.744,31.168 79.16,31.136 79.56,31.072 L79.56,31.072 L79.68,29.224 C79.328,29.272 78.968,29.296 78.6,29.296 C77.016,29.296 76.224,28.44 76.224,26.728 L76.224,26.728 L76.224,21.16 L79.44,21.16 L79.44,19.288 L76.224,19.288 L76.224,15.76 L73.8,15.76 L73.8,19.288 L71.52,19.288 L71.52,21.16 L73.8,21.16 L73.8,26.824 C73.8,28.232 74.172,29.308 74.916,30.052 C75.66,30.796 76.792,31.168 78.312,31.168 Z M85.752,31.168 C86.552,31.168 87.276,30.992 87.924,30.64 C88.572,30.288 89.08,29.776 89.448,29.104 L89.448,29.104 L89.448,31 L91.8,31 L91.8,19.288 L89.376,19.288 L89.376,25.864 C89.376,26.872 89.092,27.68 88.524,28.288 C87.956,28.896 87.2,29.2 86.256,29.2 C85.456,29.2 84.864,28.976 84.48,28.528 C84.096,28.08 83.904,27.384 83.904,26.44 L83.904,26.44 L83.904,19.288 L81.48,19.288 L81.48,26.464 C81.48,29.6 82.904,31.168 85.752,31.168 Z M99.72,31.168 C100.6,31.168 101.376,30.98 102.048,30.604 C102.72,30.228 103.232,29.688 103.584,28.984 L103.584,28.984 L103.584,31 L105.984,31 L105.984,14.08 L103.56,14.08 L103.56,21.16 C103.208,20.472 102.7,19.94 102.036,19.564 C101.372,19.188 100.6,19 99.72,19 C98.696,19 97.792,19.248 97.008,19.744 C96.224,20.24 95.612,20.944 95.172,21.856 C94.732,22.768 94.512,23.832 94.512,25.048 C94.512,26.248 94.732,27.312 95.172,28.24 C95.612,29.168 96.228,29.888 97.02,30.4 C97.812,30.912 98.712,31.168 99.72,31.168 Z M100.296,29.248 C99.256,29.248 98.44,28.876 97.848,28.132 C97.256,27.388 96.96,26.36 96.96,25.048 C96.96,23.736 97.252,22.724 97.836,22.012 C98.42,21.3 99.24,20.944 100.296,20.944 C101.352,20.944 102.164,21.304 102.732,22.024 C103.3,22.744 103.584,23.768 103.584,25.096 C103.584,26.424 103.3,27.448 102.732,28.168 C102.164,28.888 101.352,29.248 100.296,29.248 Z M114.744,31.168 C115.576,31.168 116.392,31.032 117.192,30.76 C117.992,30.488 118.664,30.12 119.208,29.656 L119.208,29.656 L118.464,27.952 C117.376,28.832 116.16,29.272 114.816,29.272 C112.528,29.272 111.296,28.032 111.12,25.552 L111.12,25.552 L119.4,25.552 L119.4,24.784 C119.4,22.976 118.948,21.56 118.044,20.536 C117.14,19.512 115.896,19 114.312,19 C113.224,19 112.252,19.256 111.396,19.768 C110.54,20.28 109.876,21 109.404,21.928 C108.932,22.856 108.696,23.92 108.696,25.12 C108.696,27.008 109.236,28.488 110.316,29.56 C111.396,30.632 112.872,31.168 114.744,31.168 Z M117.312,24.16 L111.144,24.16 C111.256,23.072 111.588,22.236 112.14,21.652 C112.692,21.068 113.432,20.776 114.36,20.776 C115.272,20.776 115.98,21.068 116.484,21.652 C116.988,22.236 117.264,23.072 117.312,24.16 L117.312,24.16 Z M124.488,31 L124.488,24.328 C124.488,23.304 124.784,22.488 125.376,21.88 C125.968,21.272 126.752,20.968 127.728,20.968 C128.56,20.968 129.172,21.2 129.564,21.664 C129.956,22.128 130.152,22.856 130.152,23.848 L130.152,23.848 L130.152,31 L132.576,31 L132.576,23.728 C132.576,20.576 131.176,19 128.376,19 C127.512,19 126.736,19.184 126.048,19.552 C125.36,19.92 124.824,20.456 124.44,21.16 L124.44,21.16 L124.44,19.288 L122.064,19.288 L122.064,31 L124.488,31 Z M141.144,31.168 C141.576,31.168 141.992,31.136 142.392,31.072 L142.392,31.072 L142.512,29.224 C142.16,29.272 141.8,29.296 141.432,29.296 C139.848,29.296 139.056,28.44 139.056,26.728 L139.056,26.728 L139.056,21.16 L142.272,21.16 L142.272,19.288 L139.056,19.288 L139.056,15.76 L136.632,15.76 L136.632,19.288 L134.352,19.288 L134.352,21.16 L136.632,21.16 L136.632,26.824 C136.632,28.232 137.004,29.308 137.748,30.052 C138.492,30.796 139.624,31.168 141.144,31.168 Z M151.752,31 L153.552,26.824 L162.12,26.824 L163.92,31 L166.392,31 L158.856,14.08 L156.792,14.08 L149.256,31 L151.752,31 Z M161.28,24.856 L154.392,24.856 L157.848,16.84 L161.28,24.856 Z M170.736,35.32 L170.736,28.984 C171.088,29.688 171.6,30.228 172.272,30.604 C172.944,30.98 173.72,31.168 174.6,31.168 C175.624,31.168 176.532,30.92 177.324,30.424 C178.116,29.928 178.728,29.224 179.16,28.312 C179.592,27.4 179.808,26.344 179.808,25.144 C179.808,23.928 179.588,22.856 179.148,21.928 C178.708,21 178.092,20.28 177.3,19.768 C176.508,19.256 175.608,19 174.6,19 C173.72,19 172.944,19.192 172.272,19.576 C171.6,19.96 171.088,20.504 170.736,21.208 L170.736,21.208 L170.736,19.288 L168.312,19.288 L168.312,35.32 L170.736,35.32 Z M174.024,29.248 C172.968,29.248 172.156,28.888 171.588,28.168 C171.02,27.448 170.736,26.424 170.736,25.096 C170.736,23.768 171.02,22.744 171.588,22.024 C172.156,21.304 172.968,20.944 174.024,20.944 C175.064,20.944 175.876,21.312 176.46,22.048 C177.044,22.784 177.336,23.816 177.336,25.144 C177.336,26.456 177.048,27.468 176.472,28.18 C175.896,28.892 175.08,29.248 174.024,29.248 Z M184.92,35.32 L184.92,28.984 C185.272,29.688 185.784,30.228 186.456,30.604 C187.128,30.98 187.904,31.168 188.784,31.168 C189.808,31.168 190.716,30.92 191.508,30.424 C192.3,29.928 192.912,29.224 193.344,28.312 C193.776,27.4 193.992,26.344 193.992,25.144 C193.992,23.928 193.772,22.856 193.332,21.928 C192.892,21 192.276,20.28 191.484,19.768 C190.692,19.256 189.792,19 188.784,19 C187.904,19 187.128,19.192 186.456,19.576 C185.784,19.96 185.272,20.504 184.92,21.208 L184.92,21.208 L184.92,19.288 L182.496,19.288 L182.496,35.32 L184.92,35.32 Z M188.208,29.248 C187.152,29.248 186.34,28.888 185.772,28.168 C185.204,27.448 184.92,26.424 184.92,25.096 C184.92,23.768 185.204,22.744 185.772,22.024 C186.34,21.304 187.152,20.944 188.208,20.944 C189.248,20.944 190.06,21.312 190.644,22.048 C191.228,22.784 191.52,23.816 191.52,25.144 C191.52,26.456 191.232,27.468 190.656,28.18 C190.08,28.892 189.264,29.248 188.208,29.248 Z" id="StudentApp" fill="#314457"></path>
                <g id="abstract" fill="#455DC7">
                    <path d="M22,0.5 C9.84971429,0.5 0,10.3497143 0,22.5 C0,34.6502857 9.84971429,44.5 22,44.5 C34.1502857,44.5 44,34.6502857 44,22.5 C44,10.3497143 34.1502857,0.5 22,0.5 Z M22,36.4376735 L9.00114286,13.9734286 L34.9988571,13.9734286 L22,36.4376735 Z" id="Shape"></path>
                    <polygon id="Path" points="21.5 27.5 27 18.5 16 18.5"></polygon>
                </g>
            </g>
        </g>
    </g>
</svg>