<?xml version="1.0" encoding="UTF-8"?>
<svg width="28px" height="25px" viewBox="0 0 28 25" version="1.1" xmlns="http://www.w3.org/2000/svg" xmlns:xlink="http://www.w3.org/1999/xlink">
    <!-- Generator: Sketch 63.1 (92452) - https://sketch.com -->
    <title>web</title>
    <desc>Created with Sketch.</desc>
    <g id="Page-1" stroke="none" stroke-width="1" fill="none" fill-rule="evenodd">
        <g id="Desktop-HD" transform="translate(-434.000000, -332.000000)">
            <g id="web" transform="translate(432.000000, 328.000000)">
                <rect id="Bound" x="0" y="0" width="32" height="32"></rect>
                <path d="M21.8134285,4.00188446 C21.3390391,3.98642923 20.8424818,4.06656475 20.3446225,4.22295301 C19.3489052,4.53573022 18.3054924,5.14525678 17.2346999,5.98919864 C16.8150558,6.31993977 16.3916041,6.69800926 15.9667257,7.09914692 C15.5512153,6.70819321 15.1364649,6.34027236 14.7260843,6.01683221 C13.6561521,5.17356776 12.6155673,4.56380664 11.6221036,4.25173796 C10.6286411,3.93966905 9.64014036,3.92999921 8.82828299,4.38414883 C8.01642501,4.83829838 7.53092915,5.67197234 7.31313111,6.66161548 C7.09533306,7.65125873 7.11932496,8.8297958 7.33808677,10.1492019 C7.41407268,10.6074929 7.52244267,11.0882828 7.64587026,11.5780882 C7.18197575,11.7143053 6.73147763,11.8575288 6.31372543,12.0156194 C5.05298467,12.4927225 4.00979767,13.0635067 3.25014853,13.7427171 C2.49049934,14.4219282 2,15.2462733 2,16.1514435 C2,17.0566137 2.49049934,17.8798075 3.25014853,18.559018 C4.00979767,19.238229 5.05298467,19.8101646 6.31372543,20.2872676 C6.76042398,20.456312 7.24405035,20.608525 7.74331575,20.752433 C7.56373122,21.402575 7.41823135,22.0334686 7.3190731,22.6315157 C7.10013606,23.9519817 7.07701606,25.1306673 7.29530572,26.1225559 C7.51359781,27.1144451 7.99934009,27.9528396 8.81521071,28.4092342 C9.63108256,28.8656293 10.6240084,28.854422 11.6197264,28.5416448 C12.6154438,28.2288676 13.6576683,27.6204928 14.7284608,26.776551 C15.1442401,26.4488555 15.5648194,26.0750374 15.9857393,25.6781162 C16.4088673,26.0774291 16.8311289,26.452995 17.2489598,26.7823076 C18.3188926,27.6255715 19.3606656,28.2341815 20.3541294,28.5462507 C21.3475925,28.8583193 22.3360926,28.8679892 23.14795,28.4138395 C23.9598074,27.9596898 24.4441156,27.1260161 24.661913,26.136373 C24.8797104,25.1467299 24.8557179,23.9693435 24.6369573,22.649938 C24.5375308,22.0502687 24.3919408,21.4172828 24.211527,20.7650982 C24.7272841,20.6176861 25.2261875,20.4613789 25.6862744,20.2872676 C26.9470149,19.8101646 27.990202,19.238229 28.7498512,18.559018 C29.5095004,17.8798075 30,17.0566137 30,16.1514435 C30,15.2462733 29.5095004,14.4219287 28.7498512,13.7427171 C27.990202,13.0635067 26.9470149,12.4927225 25.6862744,12.0156194 C25.262527,11.8552604 24.8051148,11.7101716 24.3339276,11.572331 C24.4583585,11.0795244 24.5688324,10.5952864 24.6452759,10.1342341 C24.8642129,8.81376804 24.8873372,7.63393108 24.6690433,6.64204166 C24.4507554,5.65015294 23.9638212,4.81291092 23.14795,4.35651526 C22.7400141,4.1283181 22.2878174,4.01733969 21.8134285,4.00188446 Z M21.7575758,5.20164187 C22.0552617,5.20952889 22.3092119,5.27816543 22.5264404,5.39968251 C22.9608987,5.64271637 23.2820325,6.11572271 23.4533569,6.89419798 C23.6246813,7.67267231 23.6187594,8.72447167 23.4165179,9.94425306 C23.3472741,10.361881 23.2467328,10.8044968 23.1325012,11.2579992 C21.8879396,10.9677957 20.524184,10.752449 19.0707069,10.6258811 C18.3410464,9.64647431 17.5913093,8.75421335 16.8354129,7.96269598 C17.2352384,7.58454319 17.6324755,7.23087118 18.0202016,6.92528576 C19.0093466,6.14569419 19.9457925,5.61522576 20.7272724,5.36974611 C21.1180127,5.24700584 21.4598893,5.19375491 21.7575758,5.20164187 Z M10.2115269,5.20509608 C10.5109334,5.19699772 10.8535274,5.25010617 11.2453951,5.37320032 C12.0291293,5.61938857 12.9672149,6.14962254 13.9572191,6.92989136 C14.3371632,7.22934298 14.725505,7.57628348 15.1170527,7.94542492 C14.355566,8.74342049 13.5996307,9.64341531 12.8651216,10.6316383 C11.417791,10.7605095 10.0595867,10.9770246 8.82115271,11.2683617 C8.70777285,10.817376 8.60721764,10.3770363 8.53832428,9.96152411 C8.3359057,8.74068336 8.33085446,7.68873545 8.5026735,6.90801477 C8.67449255,6.12729397 8.99824813,5.65071875 9.4367203,5.40543948 C9.65595547,5.28279997 9.91212036,5.21319444 10.2115269,5.20509608 Z M15.9857393,8.81127674 C16.4813784,9.33387867 16.9771234,9.90576178 17.4688053,10.521104 C16.9856884,10.5015863 16.49666,10.4900159 15.9999999,10.4900159 C15.4934497,10.4900159 14.9951109,10.5019618 14.5026734,10.5222554 C14.9944672,9.90643737 15.4899773,9.33427128 15.9857393,8.81127674 Z M15.9999999,11.6805626 C16.8274101,11.6805626 17.6338658,11.7135053 18.4183003,11.7692199 C18.9580578,12.5203548 19.4855231,13.3172297 19.9881166,14.1606752 C20.4297301,14.901786 20.8293664,15.6417555 21.1931072,16.3725121 C20.8255265,17.1129632 20.419192,17.8629397 19.9714795,18.6142851 C19.5773734,19.2756686 19.1658148,19.903831 18.7474746,20.5094875 C17.8614,20.5812446 16.9432621,20.6211731 15.9999999,20.6211731 C15.0340296,20.6211731 14.0952638,20.5788753 13.1895422,20.5037303 C12.7781673,19.9067821 12.3735523,19.2881351 11.9857398,18.6373134 C11.5390507,17.8876858 11.1346778,17.139077 10.7676769,16.4001456 C11.1362165,15.6570411 11.5424062,14.9042809 11.9916812,14.1503127 C12.4916396,13.3112886 13.0175661,12.5190249 13.5543673,11.7715226 C14.3472462,11.7145529 15.1630639,11.6805626 15.9999999,11.6805626 Z M19.9845512,11.916599 C20.9875424,12.0378536 21.929272,12.2061982 22.805704,12.4082466 C22.5456469,13.2342447 22.2253199,14.097014 21.8371953,14.9873796 C21.5851909,14.516697 21.3241908,14.0444156 21.0421862,13.5711591 C20.7004349,12.997636 20.3444905,12.4508538 19.9845512,11.916599 Z M11.950089,11.9258101 C11.5977454,12.4500763 11.2510469,12.98623 10.9162208,13.5481308 C10.6305978,14.0274599 10.3641795,14.5060957 10.1093283,14.9827738 C9.72455313,14.0977609 9.40615423,13.2398982 9.14794987,12.4186091 C10.0178455,12.2161952 10.9540869,12.0484484 11.950089,11.9258101 Z M24.0095063,12.721427 C24.4408166,12.84787 24.8573662,12.9798231 25.2394532,13.1244161 C26.4016616,13.5642317 27.3209799,14.085038 27.9168153,14.6177807 C28.5126494,15.1505229 28.7712414,15.6585762 28.7712414,16.1514435 C28.7712414,16.6443108 28.5126501,17.1523647 27.9168153,17.6851063 C27.3209799,18.2178491 26.4016616,18.7386553 25.2394532,19.1784709 C24.8148559,19.3391512 24.3483439,19.4848584 23.863339,19.6229107 C23.5173639,18.5860821 23.0757656,17.504396 22.5502078,16.4001456 C23.1544834,15.1323664 23.6426345,13.8962725 24.0095063,12.721427 Z M7.97029086,12.7271836 C8.33296148,13.8903066 8.81484869,15.1141121 9.41057636,16.3690581 C8.88156932,17.4797442 8.43778549,18.5675777 8.09031485,19.6102455 C7.62240222,19.4758246 7.1717035,19.3340648 6.76054658,19.1784709 C5.59833786,18.7386553 4.67901981,18.2178491 4.08318476,17.6851063 C3.48734971,17.1523641 3.22875813,16.6443108 3.22875813,16.1514435 C3.22875813,15.6585762 3.48734971,15.1505229 4.08318476,14.6177807 C4.67901981,14.085038 5.59833786,13.5642317 6.76054658,13.1244161 C7.13675608,12.9820474 7.54632018,12.851973 7.97029086,12.7271836 Z M15.9999999,13.4433538 C14.3270534,13.4433538 12.9578133,14.7700133 12.9578133,16.3909344 C12.9578133,18.0118556 14.3270534,19.3385151 15.9999999,19.3385151 C17.6729463,19.3385151 19.0421864,18.0118556 19.0421864,16.3909344 C19.0421864,14.7700133 17.6729463,13.4433538 15.9999999,13.4433538 Z M10.1235888,17.785278 C10.3795578,18.26433 10.6457686,18.7450392 10.9328579,19.2268295 C11.1574765,19.6037814 11.3868726,19.9707081 11.6197264,20.3310209 C10.802617,20.2212401 10.0258945,20.0822516 9.29649436,19.9176687 C9.52844892,19.2293426 9.80595231,18.5148408 10.1235888,17.785278 Z M21.8526441,17.785278 C22.1715523,18.5165675 22.4491975,19.2322141 22.6821152,19.922274 C21.9503999,20.0866635 21.1712862,20.225178 20.3517528,20.3344749 C20.5876604,19.9697566 20.8206377,19.5982382 21.0481282,19.216467 C21.3331062,18.7382208 21.5982821,18.2608307 21.8526441,17.785278 Z M8.94592982,21.0621589 C10.0470943,21.314908 11.2406304,21.5090616 12.5062385,21.6355553 C13.351095,22.8195247 14.2312525,23.883388 15.1170527,24.8134157 C14.7209509,25.187611 14.3283585,25.5388 13.9441474,25.8416149 C12.9550023,26.621207 12.0173676,27.1505229 11.2358883,27.3960033 C10.4544078,27.6414832 9.871178,27.6090999 9.4367203,27.3660671 C9.00226199,27.1230326 8.68231644,26.6500261 8.51099206,25.8715512 C8.33966767,25.0930762 8.34440192,24.0424288 8.54664283,22.8226474 C8.63839092,22.2692898 8.77550653,21.6767566 8.94592982,21.0621589 Z M23.033868,21.0667648 C23.205715,21.6851124 23.3432377,22.2798174 23.4355315,22.8364645 C23.6379501,24.0573046 23.6430007,25.1092526 23.4711823,25.8899735 C23.2993633,26.6706945 22.9779842,27.1484207 22.5395127,27.3937001 C22.1010411,27.6389801 21.5121949,27.6709778 20.7284607,27.4247882 C19.9447265,27.1785998 19.0066403,26.648366 18.0166367,25.8680972 C17.6296621,25.5631045 17.2343525,25.2090688 16.8354129,24.8318381 C17.727149,23.8981807 18.6135223,22.8288975 19.4640519,21.6378585 C20.7328518,21.512209 21.9297027,21.3192156 23.033868,21.0667648 Z M14.0938802,21.7564521 C14.7186011,21.789439 15.3515542,21.8117192 15.9999999,21.8117192 C16.626997,21.8117192 17.239425,21.7907766 17.8443255,21.7599066 C17.2259773,22.5682341 16.5956807,23.3030989 15.9679145,23.9648349 C15.3405299,23.3016853 14.7114173,22.5655075 14.0938802,21.7564521 Z" id="Shape" fill="#455DC7" fill-rule="nonzero"></path>
            </g>
        </g>
    </g>
</svg>