<?xml version="1.0" encoding="utf-8"?>
<!-- Generator: Adobe Illustrator 23.1.1, SVG Export Plug-In . SVG Version: 6.00 Build 0)  -->
<svg version="1.1" baseProfile="basic" id="Layer_1"
	 xmlns="http://www.w3.org/2000/svg" xmlns:xlink="http://www.w3.org/1999/xlink" x="0px" y="0px" viewBox="0 0 1080 1080"
	 xml:space="preserve">
<style type="text/css">
	.st0{fill:#FAD059;}
	.st1{fill:#2E2E2E;}
	.st2{fill:none;}
	.st3{fill:#4ABBEB;}
	.st4{fill:#209A80;}
	.st5{fill:#0F7BBD;}
	.st6{fill:#F4BF3F;}
	.st7{fill:#E43E2C;}
	.st8{fill:#FFFFFF;}
</style>
<g>
	<g>
		<path class="st0" d="M816.51,594.65c-4.13,0-7.49,3.35-7.49,7.48c0,4.13,3.35,7.48,7.49,7.48c4.13,0,7.48-3.35,7.48-7.48
			C823.99,598,820.64,594.65,816.51,594.65z"/>
		<path class="st8" d="M554.32,553.91v8.51c-1.69-3.14-4.14-5.58-7.36-7.31c-3.22-1.72-6.9-2.59-11.05-2.59
			c-4.91,0-9.29,1.17-13.12,3.51c-3.84,2.34-6.81,5.64-8.92,9.9c-2.11,4.26-3.16,9.15-3.16,14.68s1.07,10.4,3.22,14.62
			c2.15,4.22,5.12,7.5,8.92,9.84c3.79,2.34,8.15,3.51,13.06,3.51c4.14,0,7.83-0.87,11.05-2.6c3.23-1.72,5.68-4.16,7.36-7.31v7.37
			c0,9.82-4.99,14.73-14.96,14.73c-7.44,0-14.65-2.11-21.63-6.33l-4.03,10.13c3.38,2.3,7.33,4.08,11.85,5.35
			c4.53,1.27,9.25,1.9,14.16,1.9c9.51,0,16.71-2.26,21.58-6.79c4.87-4.53,7.31-11.2,7.31-20.03v-51.1H554.32z M539.71,597.41
			c-4.52,0-8.09-1.51-10.7-4.55c-2.61-3.03-3.91-7.12-3.91-12.25c0-5.29,1.3-9.44,3.91-12.43c2.61-2.99,6.18-4.49,10.7-4.49
			c4.61,0,8.19,1.49,10.77,4.49c2.57,2.99,3.85,7.14,3.85,12.43c0,5.22-1.29,9.32-3.85,12.31
			C547.9,595.92,544.31,597.41,539.71,597.41 M616.24,552.42l-4.38,0.34c-9.13,0.62-15.15,4.3-18.07,11.05v-9.9h-13.7v56.28h14.38
			v-30.39c0-8.67,4.76-13.51,14.27-14.5l8.4-0.81L616.24,552.42z M670.22,580.61c0-8.75-2.24-15.61-6.73-20.6
			c-4.49-4.99-10.61-7.48-18.35-7.48c-5.3,0-10.04,1.23-14.21,3.69c-4.18,2.46-7.42,5.9-9.73,10.35c-2.3,4.45-3.45,9.56-3.45,15.31
			c0,9.05,2.67,16.19,8,21.4c5.33,5.22,12.6,7.83,21.81,7.83c3.99,0,7.96-0.65,11.91-1.95c3.95-1.31,7.23-3.03,9.84-5.18l-4.14-9.9
			c-5.14,3.99-10.82,5.99-17.03,5.99c-4.99,0-8.82-1.27-11.51-3.8c-2.69-2.53-4.26-6.4-4.72-11.62h38.33V580.61z M645.47,562.66
			c3.84,0,6.83,1.21,8.98,3.62c2.14,2.42,3.29,5.97,3.45,10.65h-26.01c0.54-4.6,1.98-8.14,4.32-10.59
			C638.55,563.89,641.64,562.66,645.47,562.66 M718.56,529.05v33.15c-1.69-3.07-4.11-5.45-7.26-7.14
			c-3.14-1.68-6.75-2.53-10.81-2.53c-4.92,0-9.25,1.19-13.01,3.57c-3.76,2.38-6.69,5.75-8.81,10.13c-2.11,4.37-3.16,9.48-3.16,15.3
			c0,5.84,1.05,10.99,3.16,15.48c2.11,4.49,5.07,7.96,8.86,10.42c3.8,2.46,8.12,3.68,12.95,3.68c4.07,0,7.69-0.88,10.87-2.64
			c3.18-1.77,5.62-4.22,7.31-7.36v9.09h14.27v-81.14H718.56z M704.28,599.95c-4.52,0-8.05-1.61-10.58-4.83
			c-2.54-3.22-3.8-7.75-3.8-13.58c0-5.75,1.27-10.16,3.8-13.23c2.53-3.07,6.09-4.6,10.7-4.6c4.52,0,8.03,1.55,10.53,4.66
			c2.49,3.11,3.74,7.58,3.74,13.41c0,5.83-1.25,10.32-3.74,13.47C712.44,598.37,708.89,599.95,704.28,599.95 M781.74,553.91v31.31
			c0,4.37-1.21,7.88-3.62,10.53c-2.42,2.65-5.62,3.97-9.62,3.97c-3.45,0-5.98-0.96-7.59-2.88c-1.61-1.92-2.42-4.87-2.42-8.86v-34.07
			h-14.39v33.95c0,15.5,6.91,23.25,20.72,23.25c3.76,0,7.13-0.82,10.13-2.47c2.99-1.65,5.37-4.01,7.13-7.08v8.64h14.04v-56.28
			H781.74z"/>
	</g>
	<g>
		<polygon class="st2" points="386.51,500.74 359.71,484.91 328.77,503.22 328.77,576.35 359.71,594.56 387.38,578.19 
			356.23,559.78 356.23,518.66 		"/>
		<path d="M359.71,399l-103.7,61.36v159.36L359.71,681l103.91-61.28v-81.21l-31.16-18.42l31.16-18.41v-41.33L359.71,399z
			 M426.17,477.69l-66.45-39.21l-66.57,39.39l-26.48-15.79l92.9-55.1l93.2,54.92L426.17,477.69z M386.96,539.4
			c-0.04,0.21-0.06,0.42-0.06,0.64c0,1.87,1.51,3.38,3.38,3.38c0.82,0,1.57-0.3,2.15-0.79l5.27,3.11c-0.21-0.04-0.43-0.07-0.65-0.07
			c-1.86,0-3.38,1.52-3.38,3.39c0,1.87,1.51,3.38,3.38,3.38c1.88,0,3.39-1.51,3.39-3.38c0-0.84-0.32-1.6-0.82-2.19l24.46,14.45
			v12.27c-0.59-0.51-1.35-0.83-2.19-0.83c-1.87,0-3.39,1.52-3.39,3.39c0,1.87,1.52,3.38,3.39,3.38c0.84,0,1.6-0.32,2.19-0.83v14.63
			l-12.26-7.26c1.27-0.49,2.17-1.71,2.17-3.15c0-1.87-1.52-3.39-3.39-3.39c-1.87,0-3.38,1.52-3.38,3.39c0,0.16,0.03,0.31,0.05,0.46
			l-29.56-17.5c0.1-0.32,0.17-0.66,0.17-1.01c0-1.87-1.52-3.39-3.39-3.39c-0.96,0-1.82,0.41-2.44,1.05l-9.46-5.6V525L386.96,539.4z
			 M420.32,597.62l-60.58,35.67l-59.67-35.33l26.09-15.66l33.56,19.9l34.05-20.12L420.32,597.62z M356.64,478.98l-34.43,20.36v78.04
			l-26.41,15.68V483.87l60.84-35.99V478.98z M356.23,518.66v41.12l31.16,18.41l-27.67,16.36l-30.95-18.2v-73.13l30.95-18.31
			l26.8,15.83L356.23,518.66z M379.97,489.11c0.09-0.31,0.16-0.63,0.16-0.97c0-1.87-1.51-3.39-3.38-3.39
			c-0.95,0-1.81,0.39-2.42,1.02L363,479.08v-31.09l24.1,14.23c-0.12,0.34-0.19,0.71-0.19,1.09c0,1.87,1.51,3.39,3.38,3.39
			c0.99,0,1.88-0.44,2.5-1.12l30.47,18v12.76c-0.42-0.19-0.88-0.3-1.37-0.3c-1.87,0-3.39,1.52-3.39,3.39c0,1.87,1.52,3.38,3.39,3.38
			c0.49,0,0.95-0.11,1.37-0.3v12.17l-10.29-6.08c0.63-0.61,1.02-1.47,1.02-2.41c0-1.87-1.52-3.39-3.39-3.39
			c-1.55,0-2.84,1.06-3.24,2.48L379.97,489.11z M262.57,615.6v-11.39c1.42-0.4,2.47-1.7,2.47-3.24c0-1.55-1.05-2.84-2.47-3.24
			v-13.82c1.42-0.4,2.47-1.69,2.47-3.25c0-1.55-1.05-2.84-2.47-3.24V563.6c1.42-0.4,2.47-1.7,2.47-3.25c0-1.55-1.05-2.84-2.47-3.24
			v-13.82c1.42-0.4,2.47-1.69,2.47-3.24c0-1.56-1.05-2.85-2.47-3.25v-13.82c1.42-0.4,2.47-1.7,2.47-3.24c0-1.55-1.05-2.84-2.47-3.24
			v-13.82c1.42-0.4,2.47-1.69,2.47-3.24c0-1.55-1.05-2.84-2.47-3.25v-11.57c1.42-0.4,2.47-1.69,2.47-3.25
			c0-1.55-1.05-2.84-2.47-3.24v-10.8l3.86,2.3c-0.84,0.61-1.39,1.6-1.39,2.72c0,1.87,1.51,3.39,3.39,3.39
			c1.71,0,3.11-1.27,3.34-2.92l17.86,10.67v5.69c-0.49-1.26-1.71-2.16-3.14-2.16c-1.87,0-3.39,1.51-3.39,3.39
			c0,1.87,1.52,3.38,3.39,3.38c1.43,0,2.65-0.89,3.14-2.15v15.6c-0.49-1.26-1.71-2.16-3.14-2.16c-1.87,0-3.39,1.51-3.39,3.38
			c0,1.87,1.52,3.39,3.39,3.39c1.43,0,2.65-0.9,3.14-2.16v15.61c-0.49-1.26-1.71-2.16-3.14-2.16c-1.87,0-3.39,1.51-3.39,3.39
			c0,1.87,1.52,3.38,3.39,3.38c1.43,0,2.65-0.9,3.14-2.16v17.86c-0.49-1.26-1.71-2.16-3.14-2.16c-1.87,0-3.39,1.51-3.39,3.39
			c0,1.87,1.52,3.38,3.39,3.38c1.43,0,2.65-0.9,3.14-2.16v17.86c-0.49-1.26-1.71-2.16-3.14-2.16c-1.87,0-3.39,1.51-3.39,3.38
			c0,1.87,1.52,3.39,3.39,3.39c1.43,0,2.65-0.9,3.14-2.16v17.86c-0.49-1.26-1.71-2.16-3.14-2.16c-1.87,0-3.39,1.51-3.39,3.38
			c0,1.87,1.52,3.39,3.39,3.39c1.43,0,2.65-0.9,3.14-2.16v11.22l9.28,5.48c0,0.04-0.01,0.08-0.01,0.13c0,1.87,1.51,3.38,3.38,3.38
			c0.64,0,1.23-0.19,1.74-0.49l4.72,2.79c-1.72,0.16-3.07,1.59-3.07,3.35c0,1.87,1.51,3.39,3.39,3.39c1.87,0,3.39-1.52,3.39-3.39
			c0-0.47-0.1-0.92-0.27-1.32l20.62,12.18c-0.02,0.14-0.04,0.28-0.04,0.43c0,1.87,1.52,3.39,3.39,3.39c0.75,0,1.43-0.25,1.99-0.66
			l5.55,3.28c-1.12,0.55-1.89,1.69-1.89,3.03c0,1.87,1.51,3.38,3.38,3.38c1.87,0,3.39-1.51,3.39-3.38c0-0.05-0.01-0.1-0.02-0.16
			l6.9,4.07v1.97c-0.38-0.15-0.8-0.24-1.24-0.24c-1.87,0-3.38,1.51-3.38,3.38c0,1.87,1.51,3.39,3.38,3.39
			c0.44,0,0.85-0.09,1.24-0.24v23.49L339.37,661c-0.4-1.43-1.69-2.49-3.24-2.49c-0.27,0-0.53,0.04-0.79,0.1l-5.78-3.42
			c0.57-0.61,0.93-1.42,0.93-2.32c0-1.87-1.51-3.39-3.39-3.39c-1.5,0-2.77,0.99-3.21,2.36l-27.66-16.35
			c-0.57-1.07-1.68-1.8-2.98-1.8c-0.02,0-0.04,0.01-0.06,0.01l-4.81-2.84c0.9-0.61,1.49-1.64,1.49-2.8c0-1.87-1.52-3.38-3.38-3.38
			c-1.77,0-3.21,1.36-3.36,3.08L262.57,615.6z M457.07,615.63L363.2,671.1v-31.77l67.01-39.66v-38.32l26.85-15.89V615.63z
			 M452.82,539.91l-26.47,15.64l-60.07-35.52l26.49-15.6L452.82,539.91z M457.27,497.8l-27.46,16.22v-31.3l27.46-16.42V497.8z"/>
		<polygon class="st3" points="429.81,482.72 429.81,514.02 457.27,497.8 457.27,466.3 		"/>
		<polygon class="st4" points="359.56,406.98 266.67,462.08 293.14,477.86 359.71,438.48 426.17,477.69 452.77,461.9 		"/>
		<polygon class="st5" points="295.8,483.87 295.8,593.06 322.21,577.38 322.21,499.33 356.64,478.98 356.64,447.88 		"/>
		<polygon class="st6" points="393.77,582.08 359.71,602.2 326.16,582.31 300.07,597.96 359.74,633.3 420.32,597.62 		"/>
		<polygon class="st6" points="392.76,504.43 366.27,520.04 426.35,555.55 452.82,539.91 		"/>
		<polygon class="st7" points="430.22,561.36 430.22,599.68 363.2,639.34 363.2,671.1 457.07,615.63 457.07,545.46 		"/>
		<path class="st8" d="M286.48,624.67c1.86,0,3.38,1.51,3.38,3.38c0,1.16-0.59,2.19-1.49,2.8l4.81,2.84c0.02,0,0.04-0.01,0.06-0.01
			c1.29,0,2.41,0.74,2.98,1.8l27.66,16.35c0.44-1.37,1.71-2.36,3.21-2.36c1.87,0,3.39,1.51,3.39,3.39c0,0.9-0.36,1.72-0.93,2.32
			l5.78,3.42c0.25-0.06,0.52-0.1,0.79-0.1c1.55,0,2.85,1.06,3.24,2.49l16.05,9.49v-23.49c-0.38,0.15-0.8,0.24-1.24,0.24
			c-1.87,0-3.38-1.52-3.38-3.39c0-1.87,1.51-3.38,3.38-3.38c0.44,0,0.85,0.09,1.24,0.24v-1.97l-6.9-4.07c0,0.05,0.02,0.1,0.02,0.16
			c0,1.87-1.51,3.38-3.39,3.38c-1.87,0-3.38-1.51-3.38-3.38c0-1.33,0.78-2.48,1.89-3.03l-5.55-3.28c-0.56,0.41-1.24,0.66-1.99,0.66
			c-1.87,0-3.39-1.52-3.39-3.39c0-0.15,0.03-0.29,0.04-0.43l-20.62-12.18c0.17,0.41,0.27,0.85,0.27,1.32c0,1.87-1.51,3.39-3.39,3.39
			c-1.87,0-3.39-1.52-3.39-3.39c0-1.76,1.35-3.19,3.07-3.35l-4.72-2.79c-0.51,0.31-1.1,0.49-1.74,0.49c-1.87,0-3.38-1.51-3.38-3.38
			c0-0.04,0.01-0.08,0.01-0.13l-9.28-5.48v-11.22c-0.49,1.26-1.71,2.16-3.14,2.16c-1.87,0-3.39-1.51-3.39-3.39
			c0-1.87,1.52-3.38,3.39-3.38c1.43,0,2.65,0.9,3.14,2.16v-17.86c-0.49,1.26-1.71,2.16-3.14,2.16c-1.87,0-3.39-1.51-3.39-3.39
			c0-1.87,1.52-3.38,3.39-3.38c1.43,0,2.65,0.9,3.14,2.16v-17.86c-0.49,1.26-1.71,2.16-3.14,2.16c-1.87,0-3.39-1.51-3.39-3.38
			c0-1.87,1.52-3.39,3.39-3.39c1.43,0,2.65,0.9,3.14,2.16v-17.86c-0.49,1.26-1.71,2.16-3.14,2.16c-1.87,0-3.39-1.51-3.39-3.38
			c0-1.87,1.52-3.39,3.39-3.39c1.43,0,2.65,0.9,3.14,2.16v-15.61c-0.49,1.26-1.71,2.16-3.14,2.16c-1.87,0-3.39-1.52-3.39-3.39
			c0-1.87,1.52-3.38,3.39-3.38c1.43,0,2.65,0.9,3.14,2.16v-15.6c-0.49,1.26-1.71,2.15-3.14,2.15c-1.87,0-3.39-1.51-3.39-3.38
			c0-1.88,1.52-3.39,3.39-3.39c1.43,0,2.65,0.9,3.14,2.16v-5.69l-17.86-10.67c-0.23,1.64-1.63,2.92-3.34,2.92
			c-1.87,0-3.39-1.52-3.39-3.39c0-1.12,0.55-2.1,1.39-2.72l-3.86-2.3v10.8c1.42,0.4,2.47,1.69,2.47,3.24c0,1.55-1.05,2.84-2.47,3.25
			v11.57c1.42,0.4,2.47,1.7,2.47,3.25c0,1.55-1.05,2.84-2.47,3.24v13.82c1.42,0.4,2.47,1.7,2.47,3.24c0,1.55-1.05,2.84-2.47,3.24
			v13.82c1.42,0.4,2.47,1.69,2.47,3.25c0,1.55-1.05,2.84-2.47,3.24v13.82c1.42,0.4,2.47,1.69,2.47,3.24c0,1.55-1.05,2.84-2.47,3.25
			v13.82c1.42,0.4,2.47,1.69,2.47,3.24c0,1.55-1.05,2.84-2.47,3.25v13.82c1.42,0.4,2.47,1.69,2.47,3.24c0,1.55-1.05,2.84-2.47,3.24
			v11.39l20.55,12.15C283.27,626.03,284.71,624.67,286.48,624.67z M286.48,611.13c-1.87,0-3.39-1.52-3.39-3.39
			c0-1.87,1.52-3.39,3.39-3.39c1.86,0,3.38,1.52,3.38,3.39C289.86,609.61,288.34,611.13,286.48,611.13z M327.09,629.18
			c1.87,0,3.39,1.51,3.39,3.39c0,1.87-1.51,3.38-3.39,3.38c-1.86,0-3.39-1.51-3.39-3.38C323.71,630.69,325.23,629.18,327.09,629.18z
			 M351.92,656.26c1.87,0,3.39,1.51,3.39,3.38c0,1.87-1.52,3.39-3.39,3.39c-1.87,0-3.39-1.51-3.39-3.39
			C348.53,657.77,350.05,656.26,351.92,656.26z M305.66,634.82c0-1.87,1.51-3.39,3.39-3.39c1.87,0,3.39,1.51,3.39,3.39
			c0,1.87-1.51,3.38-3.39,3.38C307.17,638.2,305.66,636.69,305.66,634.82z M302.27,629.18c-1.87,0-3.38-1.52-3.38-3.39
			c0-1.87,1.51-3.39,3.38-3.39c1.87,0,3.38,1.51,3.38,3.39C305.66,627.66,304.14,629.18,302.27,629.18z M333.87,644.97
			c-1.87,0-3.39-1.51-3.39-3.38c0-1.87,1.52-3.39,3.39-3.39c1.87,0,3.39,1.52,3.39,3.39C337.25,643.46,335.73,644.97,333.87,644.97z
			 M342.89,654.01c-1.87,0-3.39-1.52-3.39-3.39c0-1.87,1.52-3.39,3.39-3.39c1.86,0,3.38,1.51,3.38,3.39
			C346.28,652.49,344.76,654.01,342.89,654.01z M296.63,616.77c0,1.87-1.52,3.39-3.39,3.39c-1.87,0-3.39-1.52-3.39-3.39
			c0-1.87,1.52-3.38,3.39-3.38C295.11,613.38,296.63,614.9,296.63,616.77z M277.45,602.1c-1.87,0-3.39-1.51-3.39-3.38
			c0-1.87,1.52-3.39,3.39-3.39c1.86,0,3.38,1.52,3.38,3.39C280.83,600.59,279.32,602.1,277.45,602.1z M277.45,581.79
			c-1.87,0-3.39-1.51-3.39-3.38c0-1.87,1.52-3.38,3.39-3.38c1.86,0,3.38,1.51,3.38,3.38C280.83,580.27,279.32,581.79,277.45,581.79z
			 M277.45,561.48c-1.87,0-3.39-1.51-3.39-3.39c0-1.87,1.52-3.38,3.39-3.38c1.86,0,3.38,1.51,3.38,3.38
			C280.83,559.96,279.32,561.48,277.45,561.48z M277.45,541.17c-1.87,0-3.39-1.52-3.39-3.39c0-1.87,1.52-3.38,3.39-3.38
			c1.86,0,3.38,1.51,3.38,3.38C280.83,539.65,279.32,541.17,277.45,541.17z M277.45,520.86c-1.87,0-3.39-1.52-3.39-3.39
			c0-1.87,1.52-3.39,3.39-3.39c1.86,0,3.38,1.51,3.38,3.39C280.83,519.34,279.32,520.86,277.45,520.86z M277.45,502.8
			c-1.87,0-3.39-1.51-3.39-3.38c0-1.87,1.52-3.39,3.39-3.39c1.86,0,3.38,1.52,3.38,3.39C280.83,501.29,279.32,502.8,277.45,502.8z
			 M318.06,647.23c-1.86,0-3.38-1.52-3.38-3.39c0-1.87,1.52-3.38,3.38-3.38c1.87,0,3.39,1.51,3.39,3.38
			C321.46,645.72,319.94,647.23,318.06,647.23z M321.46,623.53c0,1.87-1.52,3.39-3.39,3.39c-1.86,0-3.38-1.52-3.38-3.39
			c0-1.87,1.52-3.38,3.38-3.38C319.94,620.16,321.46,621.67,321.46,623.53z M280.83,481.36c0,1.87-1.52,3.39-3.38,3.39
			c-1.87,0-3.39-1.51-3.39-3.39c0-1.87,1.52-3.38,3.39-3.38C279.32,477.98,280.83,479.5,280.83,481.36z M265.04,490.4
			c0-1.88,1.51-3.39,3.39-3.39c1.87,0,3.39,1.51,3.39,3.39c0,1.87-1.52,3.38-3.39,3.38C266.55,493.77,265.04,492.27,265.04,490.4z
			 M268.42,505.06c1.87,0,3.39,1.51,3.39,3.38c0,1.87-1.52,3.39-3.39,3.39c-1.87,0-3.39-1.52-3.39-3.39
			C265.04,506.58,266.55,505.06,268.42,505.06z M268.42,525.37c1.87,0,3.39,1.51,3.39,3.38c0,1.87-1.52,3.39-3.39,3.39
			c-1.87,0-3.39-1.51-3.39-3.39C265.04,526.89,266.55,525.37,268.42,525.37z M268.42,545.68c1.87,0,3.39,1.52,3.39,3.39
			c0,1.87-1.52,3.38-3.39,3.38c-1.87,0-3.39-1.51-3.39-3.38C265.04,547.2,266.55,545.68,268.42,545.68z M268.42,565.99
			c1.87,0,3.39,1.51,3.39,3.38c0,1.87-1.52,3.39-3.39,3.39c-1.87,0-3.39-1.51-3.39-3.39C265.04,567.51,266.55,565.99,268.42,565.99z
			 M268.42,586.3c1.87,0,3.39,1.51,3.39,3.39c0,1.87-1.52,3.38-3.39,3.38c-1.87,0-3.39-1.51-3.39-3.38
			C265.04,587.82,266.55,586.3,268.42,586.3z M268.42,606.61c1.87,0,3.39,1.52,3.39,3.39c0,1.87-1.52,3.39-3.39,3.39
			c-1.87,0-3.39-1.51-3.39-3.39C265.04,608.13,266.55,606.61,268.42,606.61z M274.06,619.03c0-1.87,1.52-3.39,3.39-3.39
			c1.86,0,3.38,1.52,3.38,3.39c0,1.87-1.52,3.38-3.38,3.38C275.58,622.41,274.06,620.9,274.06,619.03z"/>
		<path class="st8" d="M362.58,525v31.92l9.46,5.6c0.62-0.64,1.48-1.05,2.44-1.05c1.87,0,3.39,1.52,3.39,3.39
			c0,0.36-0.07,0.69-0.17,1.01l29.56,17.5c-0.02-0.15-0.05-0.3-0.05-0.46c0-1.87,1.51-3.39,3.38-3.39c1.87,0,3.39,1.52,3.39,3.39
			c0,1.44-0.9,2.66-2.17,3.15l12.26,7.26V578.7c-0.59,0.51-1.35,0.83-2.19,0.83c-1.87,0-3.39-1.51-3.39-3.38
			c0-1.87,1.52-3.39,3.39-3.39c0.84,0,1.6,0.32,2.19,0.83v-12.27l-24.46-14.45c0.51,0.59,0.82,1.35,0.82,2.19
			c0,1.87-1.51,3.38-3.39,3.38c-1.86,0-3.38-1.51-3.38-3.38c0-1.87,1.51-3.39,3.38-3.39c0.22,0,0.44,0.02,0.65,0.07l-5.27-3.11
			c-0.59,0.49-1.33,0.79-2.15,0.79c-1.87,0-3.38-1.51-3.38-3.38c0-0.22,0.02-0.43,0.06-0.64L362.58,525z M369.97,541.17
			c-1.87,0-3.39-1.52-3.39-3.39c0-1.87,1.52-3.38,3.39-3.38c1.87,0,3.39,1.51,3.39,3.38C373.36,539.65,371.84,541.17,369.97,541.17z
			 M415.11,570.51c-1.87,0-3.39-1.51-3.39-3.39c0-1.87,1.51-3.38,3.39-3.38c1.86,0,3.38,1.51,3.38,3.38
			C418.49,568.99,416.97,570.51,415.11,570.51z M391.41,564.86c0-1.87,1.51-3.39,3.39-3.39c1.86,0,3.39,1.52,3.39,3.39
			c0,1.87-1.52,3.39-3.39,3.39C392.92,568.25,391.41,566.73,391.41,564.86z M385.77,559.22c-1.87,0-3.39-1.51-3.39-3.38
			c0-1.87,1.51-3.39,3.39-3.39c1.86,0,3.38,1.52,3.38,3.39C389.15,557.71,387.64,559.22,385.77,559.22z M376.74,550.19
			c-1.87,0-3.39-1.51-3.39-3.38c0-1.87,1.51-3.39,3.39-3.39c1.87,0,3.38,1.51,3.38,3.39C380.12,548.68,378.61,550.19,376.74,550.19z
			 M367.72,559.22c-1.87,0-3.38-1.51-3.38-3.38c0-1.87,1.51-3.39,3.38-3.39c1.87,0,3.39,1.52,3.39,3.39
			C371.1,557.71,369.59,559.22,367.72,559.22z M398.18,573.89c0-1.87,1.51-3.38,3.38-3.38c1.87,0,3.39,1.51,3.39,3.38
			c0,1.87-1.52,3.39-3.39,3.39C399.7,577.28,398.18,575.76,398.18,573.89z M409.46,558.09c0,1.87-1.51,3.39-3.39,3.39
			c-1.86,0-3.38-1.51-3.38-3.39c0-1.87,1.52-3.38,3.38-3.38C407.95,554.71,409.46,556.22,409.46,558.09z"/>
		<path class="st8" d="M407.35,505.29c0.4-1.43,1.69-2.48,3.24-2.48c1.87,0,3.39,1.52,3.39,3.39c0,0.94-0.39,1.8-1.02,2.41
			l10.29,6.08v-12.17c-0.42,0.19-0.88,0.3-1.37,0.3c-1.87,0-3.39-1.51-3.39-3.38c0-1.87,1.52-3.39,3.39-3.39
			c0.49,0,0.95,0.11,1.37,0.3v-12.76l-30.47-18c-0.62,0.68-1.51,1.12-2.5,1.12c-1.87,0-3.38-1.52-3.38-3.39
			c0-0.38,0.08-0.75,0.19-1.09L363,447.99v31.09l11.33,6.69c0.61-0.63,1.47-1.02,2.42-1.02c1.87,0,3.38,1.52,3.38,3.39
			c0,0.34-0.07,0.66-0.16,0.97L407.35,505.29z M369.97,464.44c-1.87,0-3.39-1.51-3.39-3.39s1.52-3.39,3.39-3.39
			c1.87,0,3.39,1.51,3.39,3.39S371.84,464.44,369.97,464.44z M373.36,470.08c0-1.87,1.51-3.39,3.39-3.39c1.87,0,3.38,1.52,3.38,3.39
			c0,1.87-1.51,3.38-3.38,3.38C374.87,473.47,373.36,471.95,373.36,470.08z M409.46,481.36c0,1.87-1.51,3.39-3.39,3.39
			c-1.86,0-3.38-1.51-3.38-3.39c0-1.87,1.52-3.38,3.38-3.38C407.95,477.98,409.46,479.5,409.46,481.36z M415.11,493.77
			c-1.87,0-3.39-1.51-3.39-3.38c0-1.88,1.51-3.39,3.39-3.39c1.86,0,3.38,1.51,3.38,3.39C418.49,492.27,416.97,493.77,415.11,493.77z
			 M385.77,482.49c-1.87,0-3.39-1.51-3.39-3.39c0-1.87,1.51-3.38,3.39-3.38c1.86,0,3.38,1.51,3.38,3.38
			C389.15,480.98,387.64,482.49,385.77,482.49z M394.8,484.75c1.86,0,3.39,1.52,3.39,3.39s-1.52,3.39-3.39,3.39
			c-1.87,0-3.39-1.52-3.39-3.39S392.92,484.75,394.8,484.75z M397.05,468.96c1.88,0,3.39,1.51,3.39,3.38c0,1.87-1.51,3.39-3.39,3.39
			c-1.86,0-3.38-1.52-3.38-3.39C393.67,470.47,395.18,468.96,397.05,468.96z M369.97,482.49c-1.87,0-3.39-1.51-3.39-3.39
			c0-1.87,1.52-3.38,3.39-3.38c1.87,0,3.39,1.51,3.39,3.38C373.36,480.98,371.84,482.49,369.97,482.49z M398.18,497.17
			c0-1.87,1.51-3.39,3.38-3.39c1.87,0,3.39,1.52,3.39,3.39c0,1.87-1.52,3.38-3.39,3.38C399.7,500.55,398.18,499.03,398.18,497.17z"
			/>
		<path d="M274.06,481.36c0,1.87,1.52,3.39,3.39,3.39c1.86,0,3.38-1.51,3.38-3.39c0-1.87-1.52-3.38-3.38-3.38
			C275.58,477.98,274.06,479.5,274.06,481.36z"/>
		<path d="M268.42,493.77c1.87,0,3.39-1.51,3.39-3.38c0-1.88-1.52-3.39-3.39-3.39c-1.87,0-3.39,1.51-3.39,3.39
			C265.04,492.27,266.55,493.77,268.42,493.77z"/>
		<path d="M277.45,496.04c-1.87,0-3.39,1.52-3.39,3.39c0,1.87,1.52,3.38,3.39,3.38c1.86,0,3.38-1.51,3.38-3.38
			C280.83,497.55,279.32,496.04,277.45,496.04z"/>
		<path d="M265.04,508.45c0,1.87,1.51,3.39,3.39,3.39c1.87,0,3.39-1.52,3.39-3.39c0-1.87-1.52-3.38-3.39-3.38
			C266.55,505.06,265.04,506.58,265.04,508.45z"/>
		<path d="M277.45,514.09c-1.87,0-3.39,1.51-3.39,3.39c0,1.87,1.52,3.39,3.39,3.39c1.86,0,3.38-1.52,3.38-3.39
			C280.83,515.6,279.32,514.09,277.45,514.09z"/>
		<path d="M265.04,528.75c0,1.87,1.51,3.39,3.39,3.39c1.87,0,3.39-1.51,3.39-3.39c0-1.87-1.52-3.38-3.39-3.38
			C266.55,525.37,265.04,526.89,265.04,528.75z"/>
		<path d="M277.45,534.4c-1.87,0-3.39,1.51-3.39,3.38c0,1.87,1.52,3.39,3.39,3.39c1.86,0,3.38-1.52,3.38-3.39
			C280.83,535.91,279.32,534.4,277.45,534.4z"/>
		<path d="M265.04,549.07c0,1.87,1.51,3.38,3.39,3.38c1.87,0,3.39-1.51,3.39-3.38c0-1.87-1.52-3.39-3.39-3.39
			C266.55,545.68,265.04,547.2,265.04,549.07z"/>
		<path d="M277.45,554.71c-1.87,0-3.39,1.51-3.39,3.38c0,1.87,1.52,3.39,3.39,3.39c1.86,0,3.38-1.51,3.38-3.39
			C280.83,556.22,279.32,554.71,277.45,554.71z"/>
		<path d="M265.04,569.38c0,1.87,1.51,3.39,3.39,3.39c1.87,0,3.39-1.51,3.39-3.39c0-1.87-1.52-3.38-3.39-3.38
			C266.55,565.99,265.04,567.51,265.04,569.38z"/>
		<path d="M277.45,575.02c-1.87,0-3.39,1.51-3.39,3.38c0,1.87,1.52,3.38,3.39,3.38c1.86,0,3.38-1.51,3.38-3.38
			C280.83,576.54,279.32,575.02,277.45,575.02z"/>
		<path d="M265.04,589.69c0,1.87,1.51,3.38,3.39,3.38c1.87,0,3.39-1.51,3.39-3.38c0-1.87-1.52-3.39-3.39-3.39
			C266.55,586.3,265.04,587.82,265.04,589.69z"/>
		<path d="M277.45,595.33c-1.87,0-3.39,1.52-3.39,3.39c0,1.87,1.52,3.38,3.39,3.38c1.86,0,3.38-1.51,3.38-3.38
			C280.83,596.85,279.32,595.33,277.45,595.33z"/>
		<path d="M286.48,604.36c-1.87,0-3.39,1.52-3.39,3.39c0,1.87,1.52,3.39,3.39,3.39c1.86,0,3.38-1.52,3.38-3.39
			C289.86,605.87,288.34,604.36,286.48,604.36z"/>
		<path d="M289.86,616.77c0,1.87,1.52,3.39,3.39,3.39c1.87,0,3.39-1.52,3.39-3.39c0-1.87-1.52-3.38-3.39-3.38
			C291.38,613.38,289.86,614.9,289.86,616.77z"/>
		<path d="M302.27,622.41c-1.87,0-3.38,1.51-3.38,3.39c0,1.87,1.51,3.39,3.38,3.39c1.87,0,3.38-1.52,3.38-3.39
			C305.66,623.92,304.14,622.41,302.27,622.41z"/>
		<path d="M309.04,638.2c1.87,0,3.39-1.51,3.39-3.38c0-1.87-1.51-3.39-3.39-3.39c-1.87,0-3.39,1.51-3.39,3.39
			C305.66,636.69,307.17,638.2,309.04,638.2z"/>
		<path d="M318.06,640.47c-1.86,0-3.38,1.51-3.38,3.38c0,1.87,1.52,3.39,3.38,3.39c1.87,0,3.39-1.52,3.39-3.39
			C321.46,641.98,319.94,640.47,318.06,640.47z"/>
		<path d="M314.68,623.53c0,1.87,1.52,3.39,3.38,3.39c1.87,0,3.39-1.52,3.39-3.39c0-1.87-1.52-3.38-3.39-3.38
			C316.2,620.16,314.68,621.67,314.68,623.53z"/>
		<path d="M327.09,635.95c1.87,0,3.39-1.51,3.39-3.38c0-1.87-1.51-3.39-3.39-3.39c-1.86,0-3.39,1.51-3.39,3.39
			C323.71,634.44,325.23,635.95,327.09,635.95z"/>
		<path d="M333.87,638.2c-1.87,0-3.39,1.52-3.39,3.39c0,1.87,1.52,3.38,3.39,3.38c1.87,0,3.39-1.51,3.39-3.38
			C337.25,639.72,335.73,638.2,333.87,638.2z"/>
		<path d="M342.89,647.23c-1.87,0-3.39,1.51-3.39,3.39c0,1.87,1.52,3.39,3.39,3.39c1.86,0,3.38-1.52,3.38-3.39
			C346.28,648.75,344.76,647.23,342.89,647.23z"/>
		<path d="M351.92,663.03c1.87,0,3.39-1.51,3.39-3.39c0-1.87-1.52-3.38-3.39-3.38c-1.87,0-3.39,1.51-3.39,3.38
			C348.53,661.52,350.05,663.03,351.92,663.03z"/>
		<path d="M265.04,610c0,1.87,1.51,3.39,3.39,3.39c1.87,0,3.39-1.51,3.39-3.39c0-1.87-1.52-3.39-3.39-3.39
			C266.55,606.61,265.04,608.13,265.04,610z"/>
		<path d="M280.83,619.03c0-1.87-1.52-3.39-3.38-3.39c-1.87,0-3.39,1.52-3.39,3.39c0,1.87,1.52,3.38,3.39,3.38
			C279.32,622.41,280.83,620.9,280.83,619.03z"/>
		<path d="M369.97,457.67c-1.87,0-3.39,1.51-3.39,3.39s1.52,3.39,3.39,3.39c1.87,0,3.39-1.51,3.39-3.39S371.84,457.67,369.97,457.67
			z"/>
		<path d="M376.74,473.47c1.87,0,3.38-1.51,3.38-3.38c0-1.87-1.51-3.39-3.38-3.39c-1.87,0-3.39,1.52-3.39,3.39
			C373.36,471.95,374.87,473.47,376.74,473.47z"/>
		<path d="M389.15,479.11c0-1.87-1.52-3.38-3.38-3.38c-1.87,0-3.39,1.51-3.39,3.38c0,1.87,1.51,3.39,3.39,3.39
			C387.64,482.49,389.15,480.98,389.15,479.11z"/>
		<path d="M394.8,491.52c1.86,0,3.39-1.52,3.39-3.39s-1.52-3.39-3.39-3.39c-1.87,0-3.39,1.52-3.39,3.39S392.92,491.52,394.8,491.52z
			"/>
		<path d="M404.95,497.17c0-1.87-1.52-3.39-3.39-3.39c-1.87,0-3.38,1.52-3.38,3.39c0,1.87,1.51,3.38,3.38,3.38
			C403.43,500.55,404.95,499.03,404.95,497.17z"/>
		<path d="M393.67,472.34c0,1.87,1.51,3.39,3.38,3.39c1.88,0,3.39-1.52,3.39-3.39c0-1.87-1.51-3.38-3.39-3.38
			C395.18,468.96,393.67,470.47,393.67,472.34z"/>
		<path d="M406.08,477.98c-1.86,0-3.38,1.51-3.38,3.38c0,1.87,1.52,3.39,3.38,3.39c1.87,0,3.39-1.51,3.39-3.39
			C409.46,479.5,407.95,477.98,406.08,477.98z"/>
		<path d="M415.11,487.01c-1.87,0-3.39,1.51-3.39,3.39c0,1.87,1.51,3.38,3.39,3.38c1.86,0,3.38-1.51,3.38-3.38
			C418.49,488.52,416.97,487.01,415.11,487.01z"/>
		<path d="M373.36,479.11c0-1.87-1.51-3.38-3.39-3.38c-1.87,0-3.39,1.51-3.39,3.38c0,1.87,1.52,3.39,3.39,3.39
			C371.84,482.49,373.36,480.98,373.36,479.11z"/>
		<path d="M369.97,534.4c-1.87,0-3.39,1.51-3.39,3.38c0,1.87,1.52,3.39,3.39,3.39c1.87,0,3.39-1.52,3.39-3.39
			C373.36,535.91,371.84,534.4,369.97,534.4z"/>
		<path d="M376.74,543.42c-1.87,0-3.39,1.51-3.39,3.39c0,1.87,1.51,3.38,3.39,3.38c1.87,0,3.38-1.51,3.38-3.38
			C380.12,544.94,378.61,543.42,376.74,543.42z"/>
		<path d="M385.77,552.45c-1.87,0-3.39,1.52-3.39,3.39c0,1.87,1.51,3.38,3.39,3.38c1.86,0,3.38-1.51,3.38-3.38
			C389.15,553.97,387.64,552.45,385.77,552.45z"/>
		<path d="M398.18,564.86c0-1.87-1.52-3.39-3.39-3.39c-1.87,0-3.39,1.52-3.39,3.39c0,1.87,1.51,3.39,3.39,3.39
			C396.66,568.25,398.18,566.73,398.18,564.86z"/>
		<path d="M404.95,573.89c0-1.87-1.52-3.38-3.39-3.38c-1.87,0-3.38,1.51-3.38,3.38c0,1.87,1.51,3.39,3.38,3.39
			C403.43,577.28,404.95,575.76,404.95,573.89z"/>
		<path d="M371.1,555.84c0-1.87-1.51-3.39-3.39-3.39c-1.87,0-3.38,1.52-3.38,3.39c0,1.87,1.51,3.38,3.38,3.38
			C369.59,559.22,371.1,557.71,371.1,555.84z"/>
		<path d="M402.7,558.09c0,1.87,1.52,3.39,3.38,3.39c1.87,0,3.39-1.51,3.39-3.39c0-1.87-1.51-3.38-3.39-3.38
			C404.21,554.71,402.7,556.22,402.7,558.09z"/>
		<path d="M415.11,563.74c-1.87,0-3.39,1.51-3.39,3.38c0,1.87,1.51,3.39,3.39,3.39c1.86,0,3.38-1.51,3.38-3.39
			C418.49,565.25,416.97,563.74,415.11,563.74z"/>
	</g>
</g>
</svg>
