<?xml version="1.0" encoding="utf-8"?>
<!-- Generator: Adobe Illustrator 23.1.1, SVG Export Plug-In . SVG Version: 6.00 Build 0)  -->
<svg version="1.1" baseProfile="basic" id="Layer_1"
	 xmlns="http://www.w3.org/2000/svg" xmlns:xlink="http://www.w3.org/1999/xlink" x="0px" y="0px" viewBox="0 0 1080 1080"
	 xml:space="preserve">
<style type="text/css">
	.st0{fill:#FAD059;}
	.st1{fill:#2E2E2E;}
	.st2{fill:none;}
	.st3{fill:#4ABBEB;}
	.st4{fill:#209A80;}
	.st5{fill:#0F7BBD;}
	.st6{fill:#F4BF3F;}
	.st7{fill:#E43E2C;}
	.st8{fill:#FFFFFF;}
</style>
<g>
	<polygon class="st2" points="566.69,500.74 539.89,484.91 508.95,503.22 508.95,576.35 539.89,594.56 567.56,578.19 536.41,559.78 
		536.41,518.66 	"/>
	<path d="M539.89,399l-103.7,61.36v159.36L539.89,681l103.91-61.28v-81.21l-31.16-18.42l31.16-18.41v-41.33L539.89,399z
		 M606.35,477.69l-66.45-39.21l-66.57,39.39l-26.48-15.79l92.9-55.1l93.2,54.92L606.35,477.69z M567.14,539.4
		c-0.04,0.21-0.06,0.42-0.06,0.64c0,1.87,1.51,3.38,3.38,3.38c0.82,0,1.57-0.3,2.15-0.79l5.27,3.11c-0.21-0.04-0.43-0.07-0.65-0.07
		c-1.86,0-3.38,1.52-3.38,3.39c0,1.87,1.51,3.38,3.38,3.38c1.88,0,3.39-1.51,3.39-3.38c0-0.84-0.32-1.6-0.82-2.19l24.46,14.45v12.27
		c-0.59-0.51-1.35-0.83-2.19-0.83c-1.87,0-3.39,1.52-3.39,3.39c0,1.87,1.52,3.38,3.39,3.38c0.84,0,1.6-0.32,2.19-0.83v14.63
		l-12.26-7.26c1.27-0.49,2.17-1.71,2.17-3.15c0-1.87-1.52-3.39-3.39-3.39c-1.87,0-3.38,1.52-3.38,3.39c0,0.16,0.03,0.31,0.05,0.46
		l-29.56-17.5c0.1-0.32,0.17-0.66,0.17-1.01c0-1.87-1.52-3.39-3.39-3.39c-0.96,0-1.82,0.41-2.44,1.05l-9.46-5.6V525L567.14,539.4z
		 M600.5,597.62l-60.58,35.67l-59.67-35.33l26.09-15.66l33.56,19.9l34.05-20.12L600.5,597.62z M536.82,478.98l-34.43,20.36v78.04
		l-26.41,15.68V483.87l60.84-35.99V478.98z M536.41,518.66v41.12l31.16,18.41l-27.67,16.36l-30.95-18.2v-73.13l30.95-18.31
		l26.8,15.83L536.41,518.66z M560.15,489.11c0.09-0.31,0.16-0.63,0.16-0.97c0-1.87-1.51-3.39-3.38-3.39c-0.95,0-1.81,0.39-2.42,1.02
		l-11.33-6.69v-31.09l24.1,14.23c-0.12,0.34-0.19,0.71-0.19,1.09c0,1.87,1.51,3.39,3.38,3.39c0.99,0,1.88-0.44,2.5-1.12l30.47,18
		v12.76c-0.42-0.19-0.88-0.3-1.37-0.3c-1.87,0-3.39,1.52-3.39,3.39c0,1.87,1.52,3.38,3.39,3.38c0.49,0,0.95-0.11,1.37-0.3v12.17
		l-10.29-6.08c0.63-0.61,1.02-1.47,1.02-2.41c0-1.87-1.52-3.39-3.39-3.39c-1.55,0-2.84,1.06-3.24,2.48L560.15,489.11z M442.75,615.6
		v-11.39c1.42-0.4,2.47-1.7,2.47-3.24c0-1.55-1.05-2.84-2.47-3.24v-13.82c1.42-0.4,2.47-1.69,2.47-3.25c0-1.55-1.05-2.84-2.47-3.24
		V563.6c1.42-0.4,2.47-1.7,2.47-3.25c0-1.55-1.05-2.84-2.47-3.24v-13.82c1.42-0.4,2.47-1.69,2.47-3.24c0-1.56-1.05-2.85-2.47-3.25
		v-13.82c1.42-0.4,2.47-1.7,2.47-3.24c0-1.55-1.05-2.84-2.47-3.24v-13.82c1.42-0.4,2.47-1.69,2.47-3.24c0-1.55-1.05-2.84-2.47-3.25
		v-11.57c1.42-0.4,2.47-1.69,2.47-3.25c0-1.55-1.05-2.84-2.47-3.24v-10.8l3.86,2.3c-0.84,0.61-1.39,1.6-1.39,2.72
		c0,1.87,1.51,3.39,3.39,3.39c1.71,0,3.11-1.27,3.34-2.92l17.86,10.67v5.69c-0.49-1.26-1.71-2.16-3.14-2.16
		c-1.87,0-3.39,1.51-3.39,3.39c0,1.87,1.52,3.38,3.39,3.38c1.43,0,2.65-0.89,3.14-2.15v15.6c-0.49-1.26-1.71-2.16-3.14-2.16
		c-1.87,0-3.39,1.51-3.39,3.38c0,1.87,1.52,3.39,3.39,3.39c1.43,0,2.65-0.9,3.14-2.16v15.61c-0.49-1.26-1.71-2.16-3.14-2.16
		c-1.87,0-3.39,1.51-3.39,3.39c0,1.87,1.52,3.38,3.39,3.38c1.43,0,2.65-0.9,3.14-2.16v17.86c-0.49-1.26-1.71-2.16-3.14-2.16
		c-1.87,0-3.39,1.51-3.39,3.39c0,1.87,1.52,3.38,3.39,3.38c1.43,0,2.65-0.9,3.14-2.16v17.86c-0.49-1.26-1.71-2.16-3.14-2.16
		c-1.87,0-3.39,1.51-3.39,3.38c0,1.87,1.52,3.39,3.39,3.39c1.43,0,2.65-0.9,3.14-2.16v17.86c-0.49-1.26-1.71-2.16-3.14-2.16
		c-1.87,0-3.39,1.51-3.39,3.38c0,1.87,1.52,3.39,3.39,3.39c1.43,0,2.65-0.9,3.14-2.16v11.22l9.28,5.48c0,0.04-0.01,0.08-0.01,0.13
		c0,1.87,1.51,3.38,3.38,3.38c0.64,0,1.23-0.19,1.74-0.49l4.72,2.79c-1.72,0.16-3.07,1.59-3.07,3.35c0,1.87,1.51,3.39,3.39,3.39
		c1.87,0,3.39-1.52,3.39-3.39c0-0.47-0.1-0.92-0.27-1.32l20.62,12.18c-0.02,0.14-0.04,0.28-0.04,0.43c0,1.87,1.52,3.39,3.39,3.39
		c0.75,0,1.43-0.25,1.99-0.66l5.55,3.28c-1.12,0.55-1.89,1.69-1.89,3.03c0,1.87,1.51,3.38,3.38,3.38c1.87,0,3.39-1.51,3.39-3.38
		c0-0.05-0.01-0.1-0.02-0.16l6.9,4.07v1.97c-0.38-0.15-0.8-0.24-1.24-0.24c-1.87,0-3.38,1.51-3.38,3.38c0,1.87,1.51,3.39,3.38,3.39
		c0.44,0,0.85-0.09,1.24-0.24v23.49L519.55,661c-0.4-1.43-1.69-2.49-3.24-2.49c-0.27,0-0.53,0.04-0.79,0.1l-5.78-3.42
		c0.57-0.61,0.93-1.42,0.93-2.32c0-1.87-1.51-3.39-3.39-3.39c-1.5,0-2.77,0.99-3.21,2.36L476.4,635.5c-0.57-1.07-1.68-1.8-2.98-1.8
		c-0.02,0-0.04,0.01-0.06,0.01l-4.81-2.84c0.9-0.61,1.49-1.64,1.49-2.8c0-1.87-1.52-3.38-3.38-3.38c-1.77,0-3.21,1.36-3.36,3.08
		L442.75,615.6z M637.25,615.63l-93.86,55.48v-31.77l67.01-39.66v-38.32l26.85-15.89V615.63z M633,539.91l-26.47,15.64l-60.07-35.52
		l26.49-15.6L633,539.91z M637.45,497.8l-27.46,16.22v-31.3l27.46-16.42V497.8z"/>
	<polygon class="st3" points="609.99,482.72 609.99,514.02 637.45,497.8 637.45,466.3 	"/>
	<polygon class="st4" points="539.74,406.98 446.85,462.08 473.32,477.86 539.89,438.48 606.35,477.69 632.95,461.9 	"/>
	<polygon class="st5" points="475.98,483.87 475.98,593.06 502.39,577.38 502.39,499.33 536.82,478.98 536.82,447.88 	"/>
	<polygon class="st6" points="573.95,582.08 539.89,602.2 506.34,582.31 480.25,597.96 539.92,633.3 600.5,597.62 	"/>
	<polygon class="st6" points="572.94,504.43 546.46,520.04 606.53,555.55 633,539.91 	"/>
	<polygon class="st7" points="610.4,561.36 610.4,599.68 543.38,639.34 543.38,671.1 637.25,615.63 637.25,545.46 	"/>
	<path class="st8" d="M466.66,624.67c1.86,0,3.38,1.51,3.38,3.38c0,1.16-0.59,2.19-1.49,2.8l4.81,2.84c0.02,0,0.04-0.01,0.06-0.01
		c1.29,0,2.41,0.74,2.98,1.8l27.66,16.35c0.44-1.37,1.71-2.36,3.21-2.36c1.87,0,3.39,1.51,3.39,3.39c0,0.9-0.36,1.72-0.93,2.32
		l5.78,3.42c0.25-0.06,0.52-0.1,0.79-0.1c1.55,0,2.85,1.06,3.24,2.49l16.05,9.49v-23.49c-0.38,0.15-0.8,0.24-1.24,0.24
		c-1.87,0-3.38-1.52-3.38-3.39c0-1.87,1.51-3.38,3.38-3.38c0.44,0,0.85,0.09,1.24,0.24v-1.97l-6.9-4.07c0,0.05,0.02,0.1,0.02,0.16
		c0,1.87-1.51,3.38-3.39,3.38c-1.87,0-3.38-1.51-3.38-3.38c0-1.33,0.78-2.48,1.89-3.03l-5.55-3.28c-0.56,0.41-1.24,0.66-1.99,0.66
		c-1.87,0-3.39-1.52-3.39-3.39c0-0.15,0.03-0.29,0.04-0.43l-20.62-12.18c0.17,0.41,0.27,0.85,0.27,1.32c0,1.87-1.51,3.39-3.39,3.39
		c-1.87,0-3.39-1.52-3.39-3.39c0-1.76,1.35-3.19,3.07-3.35l-4.72-2.79c-0.51,0.31-1.1,0.49-1.74,0.49c-1.87,0-3.38-1.51-3.38-3.38
		c0-0.04,0.01-0.08,0.01-0.13l-9.28-5.48v-11.22c-0.49,1.26-1.71,2.16-3.14,2.16c-1.87,0-3.39-1.51-3.39-3.39
		c0-1.87,1.52-3.38,3.39-3.38c1.43,0,2.65,0.9,3.14,2.16v-17.86c-0.49,1.26-1.71,2.16-3.14,2.16c-1.87,0-3.39-1.51-3.39-3.39
		c0-1.87,1.52-3.38,3.39-3.38c1.43,0,2.65,0.9,3.14,2.16v-17.86c-0.49,1.26-1.71,2.16-3.14,2.16c-1.87,0-3.39-1.51-3.39-3.38
		c0-1.87,1.52-3.39,3.39-3.39c1.43,0,2.65,0.9,3.14,2.16v-17.86c-0.49,1.26-1.71,2.16-3.14,2.16c-1.87,0-3.39-1.51-3.39-3.38
		c0-1.87,1.52-3.39,3.39-3.39c1.43,0,2.65,0.9,3.14,2.16v-15.61c-0.49,1.26-1.71,2.16-3.14,2.16c-1.87,0-3.39-1.52-3.39-3.39
		c0-1.87,1.52-3.38,3.39-3.38c1.43,0,2.65,0.9,3.14,2.16v-15.6c-0.49,1.26-1.71,2.15-3.14,2.15c-1.87,0-3.39-1.51-3.39-3.38
		c0-1.88,1.52-3.39,3.39-3.39c1.43,0,2.65,0.9,3.14,2.16v-5.69l-17.86-10.67c-0.23,1.64-1.63,2.92-3.34,2.92
		c-1.87,0-3.39-1.52-3.39-3.39c0-1.12,0.55-2.1,1.39-2.72l-3.86-2.3v10.8c1.42,0.4,2.47,1.69,2.47,3.24c0,1.55-1.05,2.84-2.47,3.25
		v11.57c1.42,0.4,2.47,1.7,2.47,3.25c0,1.55-1.05,2.84-2.47,3.24v13.82c1.42,0.4,2.47,1.7,2.47,3.24c0,1.55-1.05,2.84-2.47,3.24
		v13.82c1.42,0.4,2.47,1.69,2.47,3.25c0,1.55-1.05,2.84-2.47,3.24v13.82c1.42,0.4,2.47,1.69,2.47,3.24c0,1.55-1.05,2.84-2.47,3.25
		v13.82c1.42,0.4,2.47,1.69,2.47,3.24c0,1.55-1.05,2.84-2.47,3.25v13.82c1.42,0.4,2.47,1.69,2.47,3.24c0,1.55-1.05,2.84-2.47,3.24
		v11.39l20.55,12.15C463.45,626.03,464.89,624.67,466.66,624.67z M466.66,611.13c-1.87,0-3.39-1.52-3.39-3.39
		c0-1.87,1.52-3.39,3.39-3.39c1.86,0,3.38,1.52,3.38,3.39C470.04,609.61,468.52,611.13,466.66,611.13z M507.27,629.18
		c1.87,0,3.39,1.51,3.39,3.39c0,1.87-1.51,3.38-3.39,3.38c-1.86,0-3.39-1.51-3.39-3.38C503.89,630.69,505.41,629.18,507.27,629.18z
		 M532.1,656.26c1.87,0,3.39,1.51,3.39,3.38c0,1.87-1.52,3.39-3.39,3.39c-1.87,0-3.39-1.51-3.39-3.39
		C528.71,657.77,530.23,656.26,532.1,656.26z M485.84,634.82c0-1.87,1.51-3.39,3.39-3.39c1.87,0,3.39,1.51,3.39,3.39
		c0,1.87-1.51,3.38-3.39,3.38C487.35,638.2,485.84,636.69,485.84,634.82z M482.45,629.18c-1.87,0-3.38-1.52-3.38-3.39
		c0-1.87,1.51-3.39,3.38-3.39c1.87,0,3.38,1.51,3.38,3.39C485.84,627.66,484.32,629.18,482.45,629.18z M514.05,644.97
		c-1.87,0-3.39-1.51-3.39-3.38c0-1.87,1.52-3.39,3.39-3.39c1.87,0,3.39,1.52,3.39,3.39C517.43,643.46,515.92,644.97,514.05,644.97z
		 M523.08,654.01c-1.87,0-3.39-1.52-3.39-3.39c0-1.87,1.52-3.39,3.39-3.39c1.86,0,3.38,1.51,3.38,3.39
		C526.46,652.49,524.94,654.01,523.08,654.01z M476.81,616.77c0,1.87-1.52,3.39-3.39,3.39c-1.87,0-3.39-1.52-3.39-3.39
		c0-1.87,1.52-3.38,3.39-3.38C475.29,613.38,476.81,614.9,476.81,616.77z M457.63,602.1c-1.87,0-3.39-1.51-3.39-3.38
		c0-1.87,1.52-3.39,3.39-3.39c1.86,0,3.38,1.52,3.38,3.39C461.01,600.59,459.5,602.1,457.63,602.1z M457.63,581.79
		c-1.87,0-3.39-1.51-3.39-3.38c0-1.87,1.52-3.38,3.39-3.38c1.86,0,3.38,1.51,3.38,3.38C461.01,580.27,459.5,581.79,457.63,581.79z
		 M457.63,561.48c-1.87,0-3.39-1.51-3.39-3.39c0-1.87,1.52-3.38,3.39-3.38c1.86,0,3.38,1.51,3.38,3.38
		C461.01,559.96,459.5,561.48,457.63,561.48z M457.63,541.17c-1.87,0-3.39-1.52-3.39-3.39c0-1.87,1.52-3.38,3.39-3.38
		c1.86,0,3.38,1.51,3.38,3.38C461.01,539.65,459.5,541.17,457.63,541.17z M457.63,520.86c-1.87,0-3.39-1.52-3.39-3.39
		c0-1.87,1.52-3.39,3.39-3.39c1.86,0,3.38,1.51,3.38,3.39C461.01,519.34,459.5,520.86,457.63,520.86z M457.63,502.8
		c-1.87,0-3.39-1.51-3.39-3.38c0-1.87,1.52-3.39,3.39-3.39c1.86,0,3.38,1.52,3.38,3.39C461.01,501.29,459.5,502.8,457.63,502.8z
		 M498.25,647.23c-1.86,0-3.38-1.52-3.38-3.39c0-1.87,1.52-3.38,3.38-3.38c1.87,0,3.39,1.51,3.39,3.38
		C501.64,645.72,500.12,647.23,498.25,647.23z M501.64,623.53c0,1.87-1.52,3.39-3.39,3.39c-1.86,0-3.38-1.52-3.38-3.39
		c0-1.87,1.52-3.38,3.38-3.38C500.12,620.16,501.64,621.67,501.64,623.53z M461.01,481.36c0,1.87-1.52,3.39-3.38,3.39
		c-1.87,0-3.39-1.51-3.39-3.39c0-1.87,1.52-3.38,3.39-3.38C459.5,477.98,461.01,479.5,461.01,481.36z M445.22,490.4
		c0-1.88,1.51-3.39,3.39-3.39c1.87,0,3.39,1.51,3.39,3.39c0,1.87-1.52,3.38-3.39,3.38C446.73,493.77,445.22,492.27,445.22,490.4z
		 M448.6,505.06c1.87,0,3.39,1.51,3.39,3.38c0,1.87-1.52,3.39-3.39,3.39c-1.87,0-3.39-1.52-3.39-3.39
		C445.22,506.58,446.73,505.06,448.6,505.06z M448.6,525.37c1.87,0,3.39,1.51,3.39,3.38c0,1.87-1.52,3.39-3.39,3.39
		c-1.87,0-3.39-1.51-3.39-3.39C445.22,526.89,446.73,525.37,448.6,525.37z M448.6,545.68c1.87,0,3.39,1.52,3.39,3.39
		c0,1.87-1.52,3.38-3.39,3.38c-1.87,0-3.39-1.51-3.39-3.38C445.22,547.2,446.73,545.68,448.6,545.68z M448.6,565.99
		c1.87,0,3.39,1.51,3.39,3.38c0,1.87-1.52,3.39-3.39,3.39c-1.87,0-3.39-1.51-3.39-3.39C445.22,567.51,446.73,565.99,448.6,565.99z
		 M448.6,586.3c1.87,0,3.39,1.51,3.39,3.39c0,1.87-1.52,3.38-3.39,3.38c-1.87,0-3.39-1.51-3.39-3.38
		C445.22,587.82,446.73,586.3,448.6,586.3z M448.6,606.61c1.87,0,3.39,1.52,3.39,3.39c0,1.87-1.52,3.39-3.39,3.39
		c-1.87,0-3.39-1.51-3.39-3.39C445.22,608.13,446.73,606.61,448.6,606.61z M454.24,619.03c0-1.87,1.52-3.39,3.39-3.39
		c1.86,0,3.38,1.52,3.38,3.39c0,1.87-1.52,3.38-3.38,3.38C455.76,622.41,454.24,620.9,454.24,619.03z"/>
	<path class="st8" d="M542.76,525v31.92l9.46,5.6c0.62-0.64,1.48-1.05,2.44-1.05c1.87,0,3.39,1.52,3.39,3.39
		c0,0.36-0.07,0.69-0.17,1.01l29.56,17.5c-0.02-0.15-0.05-0.3-0.05-0.46c0-1.87,1.51-3.39,3.38-3.39c1.87,0,3.39,1.52,3.39,3.39
		c0,1.44-0.9,2.66-2.17,3.15l12.26,7.26V578.7c-0.59,0.51-1.35,0.83-2.19,0.83c-1.87,0-3.39-1.51-3.39-3.38
		c0-1.87,1.52-3.39,3.39-3.39c0.84,0,1.6,0.32,2.19,0.83v-12.27l-24.46-14.45c0.51,0.59,0.82,1.35,0.82,2.19
		c0,1.87-1.51,3.38-3.39,3.38c-1.86,0-3.38-1.51-3.38-3.38c0-1.87,1.51-3.39,3.38-3.39c0.22,0,0.44,0.02,0.65,0.07l-5.27-3.11
		c-0.59,0.49-1.33,0.79-2.15,0.79c-1.87,0-3.38-1.51-3.38-3.38c0-0.22,0.02-0.43,0.06-0.64L542.76,525z M550.15,541.17
		c-1.87,0-3.39-1.52-3.39-3.39c0-1.87,1.52-3.38,3.39-3.38c1.87,0,3.39,1.51,3.39,3.38C553.54,539.65,552.02,541.17,550.15,541.17z
		 M595.29,570.51c-1.87,0-3.39-1.51-3.39-3.39c0-1.87,1.51-3.38,3.39-3.38c1.86,0,3.38,1.51,3.38,3.38
		C598.67,568.99,597.15,570.51,595.29,570.51z M571.59,564.86c0-1.87,1.51-3.39,3.39-3.39c1.86,0,3.39,1.52,3.39,3.39
		c0,1.87-1.52,3.39-3.39,3.39C573.1,568.25,571.59,566.73,571.59,564.86z M565.95,559.22c-1.87,0-3.39-1.51-3.39-3.38
		c0-1.87,1.51-3.39,3.39-3.39c1.86,0,3.38,1.52,3.38,3.39C569.34,557.71,567.82,559.22,565.95,559.22z M556.92,550.19
		c-1.87,0-3.39-1.51-3.39-3.38c0-1.87,1.51-3.39,3.39-3.39c1.87,0,3.38,1.51,3.38,3.39C560.31,548.68,558.79,550.19,556.92,550.19z
		 M547.9,559.22c-1.87,0-3.38-1.51-3.38-3.38c0-1.87,1.51-3.39,3.38-3.39c1.87,0,3.39,1.52,3.39,3.39
		C551.28,557.71,549.77,559.22,547.9,559.22z M578.36,573.89c0-1.87,1.51-3.38,3.38-3.38c1.87,0,3.39,1.51,3.39,3.38
		c0,1.87-1.52,3.39-3.39,3.39C579.88,577.28,578.36,575.76,578.36,573.89z M589.64,558.09c0,1.87-1.51,3.39-3.39,3.39
		c-1.86,0-3.38-1.51-3.38-3.39c0-1.87,1.52-3.38,3.38-3.38C588.13,554.71,589.64,556.22,589.64,558.09z"/>
	<path class="st8" d="M587.53,505.29c0.4-1.43,1.69-2.48,3.24-2.48c1.87,0,3.39,1.52,3.39,3.39c0,0.94-0.39,1.8-1.02,2.41
		l10.29,6.08v-12.17c-0.42,0.19-0.88,0.3-1.37,0.3c-1.87,0-3.39-1.51-3.39-3.38c0-1.87,1.52-3.39,3.39-3.39
		c0.49,0,0.95,0.11,1.37,0.3v-12.76l-30.47-18c-0.62,0.68-1.51,1.12-2.5,1.12c-1.87,0-3.38-1.52-3.38-3.39
		c0-0.38,0.08-0.75,0.19-1.09l-24.1-14.23v31.09l11.33,6.69c0.61-0.63,1.47-1.02,2.42-1.02c1.87,0,3.38,1.52,3.38,3.39
		c0,0.34-0.07,0.66-0.16,0.97L587.53,505.29z M550.15,464.44c-1.87,0-3.39-1.51-3.39-3.39s1.52-3.39,3.39-3.39
		c1.87,0,3.39,1.51,3.39,3.39S552.02,464.44,550.15,464.44z M553.54,470.08c0-1.87,1.51-3.39,3.39-3.39c1.87,0,3.38,1.52,3.38,3.39
		c0,1.87-1.51,3.38-3.38,3.38C555.05,473.47,553.54,471.95,553.54,470.08z M589.64,481.36c0,1.87-1.51,3.39-3.39,3.39
		c-1.86,0-3.38-1.51-3.38-3.39c0-1.87,1.52-3.38,3.38-3.38C588.13,477.98,589.64,479.5,589.64,481.36z M595.29,493.77
		c-1.87,0-3.39-1.51-3.39-3.38c0-1.88,1.51-3.39,3.39-3.39c1.86,0,3.38,1.51,3.38,3.39C598.67,492.27,597.15,493.77,595.29,493.77z
		 M565.95,482.49c-1.87,0-3.39-1.51-3.39-3.39c0-1.87,1.51-3.38,3.39-3.38c1.86,0,3.38,1.51,3.38,3.38
		C569.34,480.98,567.82,482.49,565.95,482.49z M574.98,484.75c1.86,0,3.39,1.52,3.39,3.39s-1.52,3.39-3.39,3.39
		c-1.87,0-3.39-1.52-3.39-3.39S573.1,484.75,574.98,484.75z M577.23,468.96c1.88,0,3.39,1.51,3.39,3.38c0,1.87-1.51,3.39-3.39,3.39
		c-1.86,0-3.38-1.52-3.38-3.39C573.85,470.47,575.37,468.96,577.23,468.96z M550.15,482.49c-1.87,0-3.39-1.51-3.39-3.39
		c0-1.87,1.52-3.38,3.39-3.38c1.87,0,3.39,1.51,3.39,3.38C553.54,480.98,552.02,482.49,550.15,482.49z M578.36,497.17
		c0-1.87,1.51-3.39,3.38-3.39c1.87,0,3.39,1.52,3.39,3.39c0,1.87-1.52,3.38-3.39,3.38C579.88,500.55,578.36,499.03,578.36,497.17z"
		/>
	<path d="M454.24,481.36c0,1.87,1.52,3.39,3.39,3.39c1.86,0,3.38-1.51,3.38-3.39c0-1.87-1.52-3.38-3.38-3.38
		C455.76,477.98,454.24,479.5,454.24,481.36z"/>
	<path d="M448.6,493.77c1.87,0,3.39-1.51,3.39-3.38c0-1.88-1.52-3.39-3.39-3.39c-1.87,0-3.39,1.51-3.39,3.39
		C445.22,492.27,446.73,493.77,448.6,493.77z"/>
	<path d="M457.63,496.04c-1.87,0-3.39,1.52-3.39,3.39c0,1.87,1.52,3.38,3.39,3.38c1.86,0,3.38-1.51,3.38-3.38
		C461.01,497.55,459.5,496.04,457.63,496.04z"/>
	<path d="M445.22,508.45c0,1.87,1.51,3.39,3.39,3.39c1.87,0,3.39-1.52,3.39-3.39c0-1.87-1.52-3.38-3.39-3.38
		C446.73,505.06,445.22,506.58,445.22,508.45z"/>
	<path d="M457.63,514.09c-1.87,0-3.39,1.51-3.39,3.39c0,1.87,1.52,3.39,3.39,3.39c1.86,0,3.38-1.52,3.38-3.39
		C461.01,515.6,459.5,514.09,457.63,514.09z"/>
	<path d="M445.22,528.75c0,1.87,1.51,3.39,3.39,3.39c1.87,0,3.39-1.51,3.39-3.39c0-1.87-1.52-3.38-3.39-3.38
		C446.73,525.37,445.22,526.89,445.22,528.75z"/>
	<path d="M457.63,534.4c-1.87,0-3.39,1.51-3.39,3.38c0,1.87,1.52,3.39,3.39,3.39c1.86,0,3.38-1.52,3.38-3.39
		C461.01,535.91,459.5,534.4,457.63,534.4z"/>
	<path d="M445.22,549.07c0,1.87,1.51,3.38,3.39,3.38c1.87,0,3.39-1.51,3.39-3.38c0-1.87-1.52-3.39-3.39-3.39
		C446.73,545.68,445.22,547.2,445.22,549.07z"/>
	<path d="M457.63,554.71c-1.87,0-3.39,1.51-3.39,3.38c0,1.87,1.52,3.39,3.39,3.39c1.86,0,3.38-1.51,3.38-3.39
		C461.01,556.22,459.5,554.71,457.63,554.71z"/>
	<path d="M445.22,569.38c0,1.87,1.51,3.39,3.39,3.39c1.87,0,3.39-1.51,3.39-3.39c0-1.87-1.52-3.38-3.39-3.38
		C446.73,565.99,445.22,567.51,445.22,569.38z"/>
	<path d="M457.63,575.02c-1.87,0-3.39,1.51-3.39,3.38c0,1.87,1.52,3.38,3.39,3.38c1.86,0,3.38-1.51,3.38-3.38
		C461.01,576.54,459.5,575.02,457.63,575.02z"/>
	<path d="M445.22,589.69c0,1.87,1.51,3.38,3.39,3.38c1.87,0,3.39-1.51,3.39-3.38c0-1.87-1.52-3.39-3.39-3.39
		C446.73,586.3,445.22,587.82,445.22,589.69z"/>
	<path d="M457.63,595.33c-1.87,0-3.39,1.52-3.39,3.39c0,1.87,1.52,3.38,3.39,3.38c1.86,0,3.38-1.51,3.38-3.38
		C461.01,596.85,459.5,595.33,457.63,595.33z"/>
	<path d="M466.66,604.36c-1.87,0-3.39,1.52-3.39,3.39c0,1.87,1.52,3.39,3.39,3.39c1.86,0,3.38-1.52,3.38-3.39
		C470.04,605.87,468.52,604.36,466.66,604.36z"/>
	<path d="M470.04,616.77c0,1.87,1.52,3.39,3.39,3.39c1.87,0,3.39-1.52,3.39-3.39c0-1.87-1.52-3.38-3.39-3.38
		C471.56,613.38,470.04,614.9,470.04,616.77z"/>
	<path d="M482.45,622.41c-1.87,0-3.38,1.51-3.38,3.39c0,1.87,1.51,3.39,3.38,3.39c1.87,0,3.38-1.52,3.38-3.39
		C485.84,623.92,484.32,622.41,482.45,622.41z"/>
	<path d="M489.22,638.2c1.87,0,3.39-1.51,3.39-3.38c0-1.87-1.51-3.39-3.39-3.39c-1.87,0-3.39,1.51-3.39,3.39
		C485.84,636.69,487.35,638.2,489.22,638.2z"/>
	<path d="M498.25,640.47c-1.86,0-3.38,1.51-3.38,3.38c0,1.87,1.52,3.39,3.38,3.39c1.87,0,3.39-1.52,3.39-3.39
		C501.64,641.98,500.12,640.47,498.25,640.47z"/>
	<path d="M494.86,623.53c0,1.87,1.52,3.39,3.38,3.39c1.87,0,3.39-1.52,3.39-3.39c0-1.87-1.52-3.38-3.39-3.38
		C496.38,620.16,494.86,621.67,494.86,623.53z"/>
	<path d="M507.27,635.95c1.87,0,3.39-1.51,3.39-3.38c0-1.87-1.51-3.39-3.39-3.39c-1.86,0-3.39,1.51-3.39,3.39
		C503.89,634.44,505.41,635.95,507.27,635.95z"/>
	<path d="M514.05,638.2c-1.87,0-3.39,1.52-3.39,3.39c0,1.87,1.52,3.38,3.39,3.38c1.87,0,3.39-1.51,3.39-3.38
		C517.43,639.72,515.92,638.2,514.05,638.2z"/>
	<path d="M523.08,647.23c-1.87,0-3.39,1.51-3.39,3.39c0,1.87,1.52,3.39,3.39,3.39c1.86,0,3.38-1.52,3.38-3.39
		C526.46,648.75,524.94,647.23,523.08,647.23z"/>
	<path d="M532.1,663.03c1.87,0,3.39-1.51,3.39-3.39c0-1.87-1.52-3.38-3.39-3.38c-1.87,0-3.39,1.51-3.39,3.38
		C528.71,661.52,530.23,663.03,532.1,663.03z"/>
	<path d="M445.22,610c0,1.87,1.51,3.39,3.39,3.39c1.87,0,3.39-1.51,3.39-3.39c0-1.87-1.52-3.39-3.39-3.39
		C446.73,606.61,445.22,608.13,445.22,610z"/>
	<path d="M461.01,619.03c0-1.87-1.52-3.39-3.38-3.39c-1.87,0-3.39,1.52-3.39,3.39c0,1.87,1.52,3.38,3.39,3.38
		C459.5,622.41,461.01,620.9,461.01,619.03z"/>
	<path d="M550.15,457.67c-1.87,0-3.39,1.51-3.39,3.39s1.52,3.39,3.39,3.39c1.87,0,3.39-1.51,3.39-3.39S552.02,457.67,550.15,457.67z
		"/>
	<path d="M556.92,473.47c1.87,0,3.38-1.51,3.38-3.38c0-1.87-1.51-3.39-3.38-3.39c-1.87,0-3.39,1.52-3.39,3.39
		C553.54,471.95,555.05,473.47,556.92,473.47z"/>
	<path d="M569.34,479.11c0-1.87-1.52-3.38-3.38-3.38c-1.87,0-3.39,1.51-3.39,3.38c0,1.87,1.51,3.39,3.39,3.39
		C567.82,482.49,569.34,480.98,569.34,479.11z"/>
	<path d="M574.98,491.52c1.86,0,3.39-1.52,3.39-3.39s-1.52-3.39-3.39-3.39c-1.87,0-3.39,1.52-3.39,3.39S573.1,491.52,574.98,491.52z
		"/>
	<path d="M585.13,497.17c0-1.87-1.52-3.39-3.39-3.39c-1.87,0-3.38,1.52-3.38,3.39c0,1.87,1.51,3.38,3.38,3.38
		C583.61,500.55,585.13,499.03,585.13,497.17z"/>
	<path d="M573.85,472.34c0,1.87,1.51,3.39,3.38,3.39c1.88,0,3.39-1.52,3.39-3.39c0-1.87-1.51-3.38-3.39-3.38
		C575.37,468.96,573.85,470.47,573.85,472.34z"/>
	<path d="M586.26,477.98c-1.86,0-3.38,1.51-3.38,3.38c0,1.87,1.52,3.39,3.38,3.39c1.87,0,3.39-1.51,3.39-3.39
		C589.64,479.5,588.13,477.98,586.26,477.98z"/>
	<path d="M595.29,487.01c-1.87,0-3.39,1.51-3.39,3.39c0,1.87,1.51,3.38,3.39,3.38c1.86,0,3.38-1.51,3.38-3.38
		C598.67,488.52,597.15,487.01,595.29,487.01z"/>
	<path d="M553.54,479.11c0-1.87-1.51-3.38-3.39-3.38c-1.87,0-3.39,1.51-3.39,3.38c0,1.87,1.52,3.39,3.39,3.39
		C552.02,482.49,553.54,480.98,553.54,479.11z"/>
	<path d="M550.15,534.4c-1.87,0-3.39,1.51-3.39,3.38c0,1.87,1.52,3.39,3.39,3.39c1.87,0,3.39-1.52,3.39-3.39
		C553.54,535.91,552.02,534.4,550.15,534.4z"/>
	<path d="M556.92,543.42c-1.87,0-3.39,1.51-3.39,3.39c0,1.87,1.51,3.38,3.39,3.38c1.87,0,3.38-1.51,3.38-3.38
		C560.31,544.94,558.79,543.42,556.92,543.42z"/>
	<path d="M565.95,552.45c-1.87,0-3.39,1.52-3.39,3.39c0,1.87,1.51,3.38,3.39,3.38c1.86,0,3.38-1.51,3.38-3.38
		C569.34,553.97,567.82,552.45,565.95,552.45z"/>
	<path d="M578.36,564.86c0-1.87-1.52-3.39-3.39-3.39c-1.87,0-3.39,1.52-3.39,3.39c0,1.87,1.51,3.39,3.39,3.39
		C576.84,568.25,578.36,566.73,578.36,564.86z"/>
	<path d="M585.13,573.89c0-1.87-1.52-3.38-3.39-3.38c-1.87,0-3.38,1.51-3.38,3.38c0,1.87,1.51,3.39,3.38,3.39
		C583.61,577.28,585.13,575.76,585.13,573.89z"/>
	<path d="M551.28,555.84c0-1.87-1.51-3.39-3.39-3.39c-1.87,0-3.38,1.52-3.38,3.39c0,1.87,1.51,3.38,3.38,3.38
		C549.77,559.22,551.28,557.71,551.28,555.84z"/>
	<path d="M582.88,558.09c0,1.87,1.52,3.39,3.38,3.39c1.87,0,3.39-1.51,3.39-3.39c0-1.87-1.51-3.38-3.39-3.38
		C584.39,554.71,582.88,556.22,582.88,558.09z"/>
	<path d="M595.29,563.74c-1.87,0-3.39,1.51-3.39,3.38c0,1.87,1.51,3.39,3.39,3.39c1.86,0,3.38-1.51,3.38-3.39
		C598.67,565.25,597.15,563.74,595.29,563.74z"/>
</g>
</svg>
