<?xml version="1.0" encoding="UTF-8"?>
<svg width="198px" height="181px" viewBox="0 0 198 181" version="1.1" xmlns="http://www.w3.org/2000/svg" xmlns:xlink="http://www.w3.org/1999/xlink">
    <!-- Generator: Sketch 63.1 (92452) - https://sketch.com -->
    <title>Illustration/hiWelcome</title>
    <desc>Created with Sketch.</desc>
    <defs>
        <path d="M12.5100624,42.0772495 L27.1341296,50.9085219 L32.6968945,31.4102391 C31.5937301,22.6541065 31.317939,17.3953882 31.8695212,15.6340845 C32.6968945,12.9921288 34.8067479,13.3774888 34.8067479,13.3774888 C34.8067479,13.3774888 35.1388026,14.586323 35.802912,17.0039913 C37.522318,7.71285509 39.0479739,3.19085762 40.3798795,3.43799884 C41.711785,3.68514007 42.2934851,4.38952031 42.1249796,5.55113956 C43.612767,3.4868071 44.7678943,2.93196446 45.5903615,3.88661163 C46.4128286,4.84125879 46.52663,5.7068489 45.9317656,6.48338196 C47.9358207,5.50264488 49.127593,5.50264488 49.5070824,6.48338196 C49.8865717,7.46411904 49.8865717,8.2740397 49.5070824,8.91314395 C51.4201267,8.2023118 52.3766489,8.54183339 52.3766489,9.93170874 C52.3766489,12.0165217 50.0763164,19.5614375 50.0763164,22.2400838 C50.0763164,24.9187301 49.157728,29.1047351 47.0877241,31.4102391 C45.7077215,32.9472418 44.9546486,34.3529955 44.8285055,35.6275001 L42.8055214,69.2196691 C41.9948881,75.9973442 39.7694565,79.3861818 36.1292264,79.3861818 C32.4889963,79.3861818 22.5274343,73.7541382 6.24454057,62.4900509 L9.70998219,46.0345253 L12.5100624,42.0772495 Z" id="path-1"></path>
        <path d="M40.5986271,0 C28.1823286,2.00212887 19.7275711,5.72908254 15.2343547,11.180861 C10.7411383,16.6326395 5.66302008,31.2613268 -4.4211548e-14,55.066923 L16.5943314,57.7086764 L15.5555556,74.6666667 L86.2222222,74.6666667 L84.3189252,45.2993574 L102.265319,26.9608645 C91.8535585,11.8249429 82.8476012,3.55698631 75.2474474,2.15699464 C67.6472935,0.757002968 59.6620938,0.0380047545 51.2918482,0 L40.5986271,0 Z" id="path-3"></path>
        <circle id="path-5" cx="23.3385802" cy="22.9156982" r="22.6666667"></circle>
    </defs>
    <g id="Onboarding---Daftar---Masuk---Lupa-Kata-Sandi" stroke="none" stroke-width="1" fill="none" fill-rule="evenodd">
        <g id="Onboarding---1" transform="translate(-81.000000, -98.000000)">
            <g id="Illustration/hiWelcome" transform="translate(80.000000, 88.000000)">
                <g id="hiWelcome">
                    <rect id="Bound" x="0" y="0" width="200" height="200"></rect>
                    <g transform="translate(1.777778, 10.666667)">
                        <path d="M47.0551548,171.555556 C88.2388323,171.555556 122.970463,146.856302 139.09722,152.424239 C155.223977,157.992177 193.661745,148.622493 196.205398,107.116199 C198.74905,65.6099046 180.279,73.2099214 174.667839,52.5431925 C169.056677,31.8764635 170.19883,11.2239545 149.260584,3.49648651 C128.322338,-4.23098147 119.364026,1.96909311 105.086318,11.2239545 C87.0736506,22.8998298 77.4046408,41.5604656 77.4046408,49.3890702 C77.4046408,57.2176748 24.8904029,43.5171944 7.09119462,75.8102623 C-10.7080137,108.10333 5.87147723,171.555556 47.0551548,171.555556 Z" id="Path-40" fill="#F3F5FF" transform="translate(98.222222, 85.777778) scale(-1, 1) translate(-98.222222, -85.777778) "></path>
                        <g id="Path-37" transform="translate(101.311015, 86.069141)">
                            <mask id="mask-2" fill="white">
                                <use xlink:href="#path-1"></use>
                            </mask>
                            <use id="Mask" fill="#E5B9B4" transform="translate(29.310595, 41.407288) rotate(10.000000) translate(-29.310595, -41.407288) " xlink:href="#path-1"></use>
                        </g>
                        <path d="M105.361374,53.8134998 C107.421119,53.3726753 108.450992,55.9231597 108.450992,61.4649528 C108.450992,67.0067459 105.985672,71.9033959 101.055033,76.1549028 L71.433781,89.7777778 C61.6898326,89.0008402 55.6175337,83.9981327 53.2168843,74.7696551 C52.2564154,71.0774603 48.0097759,65.0360191 47.4578706,61.4649528 C45.9405815,51.6474355 49.684694,46.9890702 53.2168843,46.9890702 C56.4282206,46.9890702 58.5048263,45.5691181 59.4467013,42.7292139 C65.2526976,32.3728714 71.176948,26.7709023 77.2194524,25.9233065 C83.2619569,25.0757107 85.8748631,27.9305738 85.0581711,34.4878958 C99.9789674,32.5547989 108.403875,33.4450777 110.332894,37.1587322 C112.261913,40.8723866 110.60474,46.4239758 105.361374,53.8134998 Z" id="Path-28" fill="#2E4055"></path>
                        <path d="" id="Path-21" stroke="#979797"></path>
                        <g id="Path-32" transform="translate(24.888889, 104.888889)">
                            <mask id="mask-4" fill="white">
                                <use xlink:href="#path-3"></use>
                            </mask>
                            <use id="Mask" fill="#CBFFF2" xlink:href="#path-3"></use>
                            <polygon fill="#00CB99" mask="url(#mask-4)" points="18.7705874 2.91259648 15.5555556 74.6666667 86.6666667 74.6666667 80.8888889 0.757626221 60.66704 0 39.1111111 0"></polygon>
                        </g>
                        <path d="M64,80 C65.9962011,88.3853838 66.9943017,94.2277791 66.9943017,97.5271857 C66.9943017,100.826592 66.9943017,104.410556 66.9943017,108.279076 C67.4757565,116.339885 71.0764913,119.499582 77.796506,117.758164 C84.5165206,116.016747 87.6004232,112.508449 87.0482139,107.233271 L87.0482139,94.5371598 L64,80 Z" id="Path-23" fill="#E5B9B4"></path>
                        <path d="M103.146265,53.3333333 C103.29973,67.2712647 103.82348,75.4859318 104.717516,77.9773347 C106.058569,81.714439 99.7993018,94.9100876 91.032556,96.4444444 C82.2658102,97.9788013 74.1244818,93.4938605 67.8411141,86.6023919 C63.6522023,82.0080794 62.0802924,79.9620144 63.1253844,80.4641967 C58.3751281,79.7548257 56,77.5619443 56,73.8855526 C56,70.2091608 57.4970785,68.3120985 60.4912355,68.1943654 C63.574376,70.3813644 66.6680343,70.3813644 69.7722103,68.1943654 C74.4284744,64.9138669 66.4933435,49.1848665 81.6722661,56.4695744 C91.7915479,61.3260463 98.9495476,60.2806326 103.146265,53.3333333 Z" id="Path-22" fill="#E5B9B4"></path>
                        <g id="Path-39" transform="translate(124.661420, 27.306524)">
                            <mask id="mask-6" fill="white">
                                <use xlink:href="#path-5"></use>
                            </mask>
                            <use id="Mask" fill="#455DC7" xlink:href="#path-5"></use>
                        </g>
                        <path d="M140.913331,55.78427 L125.860202,67.6069852 C129.954685,66.3721581 134.011288,66.2194047 138.030008,67.1487249 C142.048728,68.0780451 144.388028,71.4720433 145.047906,77.3307195 L140.913331,55.78427 Z" id="Path-26" fill="#455DC7" transform="translate(135.454054, 66.557495) scale(-1, -1) rotate(20.000000) translate(-135.454054, -66.557495) "></path>
                        <path d="M139.985778,55.1111111 L139.985778,51.0577778 L144.081778,51.0577778 L144.081778,55.1111111 L146.641778,55.1111111 L146.641778,45.0844444 L144.081778,45.0844444 L144.081778,48.9813333 L139.985778,48.9813333 L139.985778,45.0844444 L137.425778,45.0844444 L137.425778,55.1111111 L139.985778,55.1111111 Z M150.88,46.9048889 L150.88,44.6151111 L148.234667,44.6151111 L148.234667,46.9048889 L150.88,46.9048889 Z M150.823111,55.1111111 L150.823111,48.1137778 L148.291556,48.1137778 L148.291556,55.1111111 L150.823111,55.1111111 Z M158.304,51.6408889 L159.100444,45.0844444 L156,45.0702222 L156.782222,51.6408889 L158.304,51.6408889 Z M158.858667,55.1111111 L158.858667,52.5226667 L156.227556,52.5226667 L156.227556,55.1111111 L158.858667,55.1111111 Z" id="Hi!" fill="#FFFFFF" fill-rule="nonzero"></path>
                        <path d="" id="Path-27" stroke="#979797"></path>
                        <path d="" id="Path-29" stroke="#979797"></path>
                        <path d="M76.4444444,66.6750203 C78.5101488,63.9969118 80.5693334,63.139013 82.6219981,64.1013238 C84.6746628,65.0636347 85.5142873,66.0936359 85.1408717,67.1913273 C83.5422924,66.0091386 81.7351743,65.5672662 79.7195174,65.8657101 C77.7038606,66.1641541 76.6121696,66.4339241 76.4444444,66.6750203 Z" id="Path-30" fill="#2E4055" transform="translate(80.835764, 65.455542) rotate(-20.000000) translate(-80.835764, -65.455542) "></path>
                        <ellipse id="Oval" fill="#2E4055" cx="82.2222222" cy="72.6086459" rx="1.33333333" ry="2.66666667"></ellipse>
                        <ellipse id="Oval-Copy-14" fill="#2E4055" cx="97.3333333" cy="72.6086459" rx="1.33333333" ry="2.66666667"></ellipse>
                        <path d="M95.0579866,66.7045223 C96.7305422,63.9616242 98.3978188,63.0829708 100.059816,64.0685622 C101.721814,65.0541536 102.40164,66.1090728 102.099293,67.2333199 C100.804959,66.0225313 99.3417747,65.569969 97.7097415,65.875633 C96.0777083,66.181297 95.19379,66.4575934 95.0579866,66.7045223 Z" id="Path-30-Copy" fill="#2E4055"></path>
                        <circle id="Oval" stroke="#FFFFFF" cx="81.3333333" cy="72.1642014" r="6.16666667"></circle>
                        <circle id="Oval-Copy-15" stroke="#FFFFFF" cx="99.1111111" cy="72.1642014" r="6.16666667"></circle>
                        <path d="M86.2222222,86.2222222 L90.6531248,86.2222222 L93.3333333,86.2222222 C92.3508447,89.4714624 90.9672144,90.9391141 89.1824427,90.6251771 C87.3976709,90.3112402 86.4109308,88.8435885 86.2222222,86.2222222 Z" id="Path-31" fill="#FFFFFF"></path>
                        <polyline id="Path-33" stroke="#2E4055" stroke-linecap="round" points="91.2928195 71.719757 93.1762231 80.8095273 88.8888889 80.8095273"></polyline>
                        <path d="" id="Path-34" stroke="#979797"></path>
                        <path d="M87.1111111,96.6583574 L87.1111111,105.591219 L65.7777778,87.2753125 C73.0838232,92.5203293 78.2939865,95.4562582 81.4082676,96.0830994 C84.5225487,96.7099406 86.4234965,96.9016933 87.1111111,96.6583574 Z" id="Path-35" fill="#B7908C"></path>
                        <line x1="87.5555556" y1="72.1642014" x2="92.8888889" y2="72.1642014" id="Line-3" stroke="#FFFFFF" stroke-linecap="square"></line>
                        <path d="M76.4444444,120.664733 L79.1111111,179.555556 L40.4444444,179.555556 L43.4995805,112.768229 C48.6577632,109.264523 52.8245696,107.331903 56,106.970369 C59.1754304,106.608836 62.972874,105.915009 67.392331,104.888889 L76.4444444,120.664733 Z" id="Path-36" fill="#0AB288"></path>
                        <path d="M67.392331,104.888889 L76.4444444,117.450365 L87.1111111,105.331542 C87.8664911,105.235766 88.7126675,105.235766 89.6496404,105.331542 C90.5866133,105.427317 92.0734652,105.660504 94.110196,106.031103 L85.5559288,124.444444 L76.4444444,119.173111 L68.6429345,124.444444 L58.6862958,106.291753 C60.6118035,105.560729 62.2082392,105.093108 63.4756028,104.888889 C64.7429665,104.68467 66.0485426,104.68467 67.392331,104.888889 Z" id="Path-24" fill="#FFFFFF"></path>
                        <line x1="141.38382" y1="107.791787" x2="141.38382" y2="103.924877" id="Path-25" stroke="#CAA19C" stroke-linecap="round"></line>
                        <line x1="149.46767" y1="94.3902108" x2="146.571922" y2="101.425942" id="Path-38" stroke="#CAA19C" stroke-linecap="round"></line>
                        <line x1="153.11797" y1="95.719757" x2="150.222222" y2="102.755488" id="Path-38-Copy" stroke="#CAA19C" stroke-linecap="round"></line>
                        <line x1="156" y1="99.1111111" x2="152.888889" y2="106.311044" id="Path-38-Copy-2" stroke="#CAA19C" stroke-linecap="round"></line>
                        <path d="M27.4917034,160.364294 L25.7777778,179.555556 C35.5555556,179.555556 40.4444444,179.555556 40.4444444,179.555556 C40.4444444,179.555556 40.790703,173.902892 41.4832202,162.597565 L27.4917034,160.364294 Z" id="Path-19" fill="#E5B9B4"></path>
                    </g>
                </g>
            </g>
        </g>
    </g>
</svg>