<?xml version="1.0" encoding="UTF-8"?>
<svg width="198px" height="172px" viewBox="0 0 198 172" version="1.1" xmlns="http://www.w3.org/2000/svg" xmlns:xlink="http://www.w3.org/1999/xlink">
    <!-- Generator: Sketch 63.1 (92452) - https://sketch.com -->
    <title>Illustration/hiWelcome2</title>
    <desc>Created with Sketch.</desc>
    <defs>
        <rect id="path-1" x="0" y="0" width="52.7492063" height="86.0983607" rx="4"></rect>
    </defs>
    <g id="Onboarding---Daftar---Masuk---Lupa-Kata-Sandi" stroke="none" stroke-width="1" fill="none" fill-rule="evenodd">
        <g id="Onboarding---3" transform="translate(-81.000000, -102.000000)">
            <g id="Illustration/read" transform="translate(80.000000, 88.000000)">
                <rect id="Bound" x="0" y="0" width="200" height="200"></rect>
                <g id="read" stroke-width="1" fill-rule="evenodd" transform="translate(1.000000, 14.000000)">
                    <path d="M47.8329325,171.777778 C89.0166101,171.777778 123.748241,147.078524 139.874998,152.646462 C156.001755,158.214399 194.439523,148.844715 196.983176,107.338421 C199.526828,65.8321268 181.056778,73.4321436 175.445616,52.7654147 C169.834455,32.0986858 170.976608,11.4461767 150.038362,3.71870873 C129.100115,-4.00875925 120.141804,2.19131533 105.864096,11.4461767 C87.8514284,23.122052 78.1824186,41.7826878 78.1824186,49.6112924 C78.1824186,57.439897 25.6681807,43.7394166 7.86897239,76.0324846 C-9.93023588,108.325553 6.64925501,171.777778 47.8329325,171.777778 Z" id="Shape" fill="#F3F5FF" transform="translate(99.000000, 86.000000) scale(-1, 1) translate(-99.000000, -86.000000) "></path>
                    <g id="PC" transform="translate(29.222222, 31.333333)">
                        <rect id="Rectangle" fill="#A0B1FF" x="0" y="0" width="59.5555556" height="104" rx="8"></rect>
                        <g id="Path" transform="translate(3.403175, 5.114754)">
                            <mask id="mask-2" fill="white">
                                <use xlink:href="#path-1"></use>
                            </mask>
                            <use id="Mask" fill="#A0B1FF" xlink:href="#path-1"></use>
                            <polygon fill="#91A4FA" mask="url(#mask-2)" points="26.7932477 0 27.2253968 86.0983607 0 86.0983607 0 -1.49356847e-16"></polygon>
                        </g>
                        <ellipse id="Oval" fill="#FFFFFF" cx="30.6285714" cy="97.1803279" rx="3.4031746" ry="3.40983607"></ellipse>
                        <rect id="Rectangle" fill="#FFFFFF" x="17.8666667" y="15.3442623" width="23.8222222" height="3.40983607" rx="1.70491803"></rect>
                        <rect id="Rectangle-Copy-7" fill="#FFFFFF" x="6.80634921" y="25.5737705" width="45.9428571" height="2.55737705" rx="1.27868852"></rect>
                        <rect id="Rectangle-Copy-9" fill="#FFFFFF" x="6.80634921" y="59.5992714" width="45.9428571" height="2.55737705" rx="1.27868852"></rect>
                        <rect id="Rectangle-Copy-11" fill="#FFFFFF" x="6.80634921" y="71.5336976" width="45.9428571" height="2.55737705" rx="1.27868852"></rect>
                        <rect id="Rectangle-Copy-12" fill="#FFFFFF" x="6.80634921" y="81.726776" width="45.9428571" height="2.55737705" rx="1.27868852"></rect>
                        <rect id="Rectangle-Copy-8" fill="#FFFFFF" x="6.80634921" y="37.5081967" width="45.9428571" height="2.55737705" rx="1.27868852"></rect>
                        <rect id="Rectangle-Copy-10" fill="#FFFFFF" x="6.80634921" y="48.5537341" width="45.9428571" height="2.55737705" rx="1.27868852"></rect>
                    </g>
                    <g id="Books" transform="translate(71.000000, 82.888889)">
                        <path d="M12.7826955,49.6693767 L96.9275362,49.6693767 C96.9275362,51.2889826 96.9275362,54.7144568 96.9275362,59.9457995 C96.9275362,65.1771421 96.9275362,68.6026164 96.9275362,70.2222222 L12.7826955,70.2222222 C9.36234779,67.7954807 7.65217391,64.3700064 7.65217391,59.9457995 C7.65217391,55.5215925 9.36234779,52.0961182 12.7826955,49.6693767 Z" id="Rectangle" fill="#F8F9F9"></path>
                        <path d="" id="Path-2" stroke="#979797"></path>
                        <rect id="Rectangle" fill="#EAEDF5" x="9.352657" y="50.5257453" width="52.7149758" height="17.9837398"></rect>
                        <path d="M96.9275362,70.2222222 L12.7826955,70.2222222 C9.36234779,67.4281611 7.65217391,64.0026868 7.65217391,59.9457995 C7.65217391,55.8889121 9.36234779,52.4634378 12.7826955,49.6693767 L96.9275362,49.6693767" id="Path-3" stroke="#00CB99" stroke-width="5"></path>
                        <path d="M5.13052162,26.5474255 L89.2753623,26.5474255 C89.2753623,28.1670313 89.2753623,31.5925056 89.2753623,36.8238482 C89.2753623,42.0551909 89.2753623,45.4806651 89.2753623,47.100271 L5.13052162,47.100271 C1.71017387,44.6735295 0,41.2480552 0,36.8238482 C0,32.3996413 1.71017387,28.974167 5.13052162,26.5474255 Z" id="Rectangle" fill="#F8F9F9"></path>
                        <path d="" id="Path-2" stroke="#979797"></path>
                        <rect id="Rectangle" fill="#EAEDF5" x="1.70048309" y="27.403794" width="51.8647343" height="17.9837398"></rect>
                        <path d="M89.2753623,46.2439024 L5.13052162,46.2439024 C1.71017387,43.4498413 0,40.0243671 0,35.9674797 C0,31.9105923 1.71017387,28.485118 5.13052162,25.6910569 L89.2753623,25.6910569" id="Path-3" stroke="#9275FF" stroke-width="5"></path>
                        <path d="M13.6329371,1.71273713 L97.7777778,1.71273713 C97.7777778,3.39982657 97.7777778,6.96802892 97.7777778,12.4173442 C97.7777778,17.8666594 97.7777778,21.4348618 97.7777778,23.1219512 L13.6329371,23.1219512 C10.2125893,20.5940954 8.50241546,17.0258931 8.50241546,12.4173442 C8.50241546,7.80879526 10.2125893,4.24059291 13.6329371,1.71273713 Z" id="Rectangle" fill="#F8F9F9"></path>
                        <path d="" id="Path-2" stroke="#979797"></path>
                        <rect id="Rectangle-Copy" fill="#EAEDF5" x="10.2028986" y="1.71273713" width="51.8647343" height="17.9837398"></rect>
                        <path d="M97.7777778,21.4092141 L13.6329371,21.4092141 C10.2125893,18.4987338 8.50241546,14.9305314 8.50241546,10.704607 C8.50241546,6.47868269 10.2125893,2.91048034 13.6329371,0 L97.7777778,0" id="Path-3" stroke="#F9CA24" stroke-width="5"></path>
                        <rect id="Rectangle" fill="#B5B3B3" x="39.1111111" y="6.85094851" width="11.9033816" height="1.71273713" rx="0.856368564"></rect>
                        <rect id="Rectangle-Copy-2" fill="#AAB6C0" x="71.4202899" y="55.237432" width="11.4782609" height="1.71273713" rx="0.856368564"></rect>
                        <polygon id="Path-4" fill="#E26052" points="40.8115942 8.56368564 40.8115942 17.9837398 45.2797237 14.9408194 49.3140097 17.9837398 49.3140097 8.56368564"></polygon>
                        <polygon id="Path-4-Copy" fill="#455DC7" points="73.1207729 56.5203252 73.1207729 65.9403794 77.5889025 62.897459 81.6231884 65.9403794 81.6231884 56.5203252"></polygon>
                    </g>
                </g>
            </g>
        </g>
    </g>
</svg>